/* XPM */
static char *_20208bfb7934eeebba1753530d05f5ac8V4wrR9g7Akr0DT[] = {
/* columns rows colors chars-per-pixel */
"120 120 45 1 ",
"  c None",
". c #0040E8",
"X c #002098",
"o c #000060",
"O c #F8F8F8",
"+ c gray69",
"@ c gray44",
"# c #A80001",
"$ c #F8F898",
"% c #F82020",
"& c #F8A850",
"* c #985010",
"= c #F8D801",
"- c #20A0F8",
"; c #009800",
": c #B8E8F8",
"> c #0098F8",
", c #70D8F8",
"< c #30C8F8",
"1 c #F8D800",
"2 c #0050D0",
"3 c #0088C0",
"4 c #90F8F8",
"5 c #78E0F8",
"6 c #00B8D8",
"7 c #008800",
"8 c #0050F8",
"9 c #006000",
"0 c black",
"q c #00D800",
"w c #78E878",
"e c #00B000",
"r c #00D8E8",
"t c #18E8F8",
"y c #0068F8",
"u c #50F8F8",
"i c #00F0F8",
"p c #98F8F8",
"a c #0090F8",
"s c #D8F8F8",
"d c #70F8F8",
"f c #0080F8",
"g c #0078D8",
"h c #00B8F8",
"j c #101010",
/* pixels */
"                                                                                                                        ",
"                                                                                                                        ",
"                                                                                                                        ",
"                                                                        XXXXXXXXXXXXXXX                                 ",
"                                                                        XXXXXXXXXXXXXXX                                 ",
"                                                                        XXXXXXXXXXXXXXX                                 ",
"                                                               XXXXXXXXX...............XXXXXXXXXooo                     ",
"                                                               XXXXXXXXX...............XXXXXXXXXooo                     ",
"                                                               XXXXXXXXX...............XXXXXXXXXooo                     ",
"                                                         XXXXXX...ooooooXXX..................ooo                        ",
"                                                         XXXXXX...ooooooXXX..................ooo                        ",
"                                                         XXXXXX...ooooooXXX..................ooo                        ",
"                                                XXXXXXXXX......ooo...$$$XXX...............jjj                           ",
"                                                XXXXXXXXX......ooo...$$$XXX...............jjj                           ",
"                                                XXXXXXXXX......ooo...$$$XXX...............jjj                           ",
"                                       ooooooXXX...XXX......XXX&&&$$$...XXX.........XXXjjj                              ",
"                                       ooooooXXX...XXX......XXX&&&$$$...XXX.........XXXjjj                              ",
"                                       ooooooXXX...XXX......XXX&&&$$$...XXX.........XXXjjj                              ",
"                                       ooo&&&&&&XXX......XXX...............XXXXXXooojjjjjj                              ",
"                                       ooo&&&&&&XXX......XXX...............XXXXXXooojjjjjj                              ",
"                                       ooo&&&&&&XXX......XXX...............XXXXXXooojjjjjj                              ",
"                                          oooooo...............XXXXXX..................XXXjjj                           ",
"                                          oooooo...............XXXXXX..................XXXjjj                           ",
"                                          oooooo...............XXXXXX..................XXXjjj                           ",
"                                             ooo............XXXOOOOOOXXX.....................ooo                        ",
"                                             ooo............XXXOOOOOOXXX.....................ooo                        ",
"                                             ooo............XXXOOOOOOXXX.....................ooo                        ",
"                                          ooo...............OOOOOOOOOOOO........................ooo                     ",
"                                          ooo...............OOOOOOOOOOOO........................ooo                     ",
"                                          ooo...............OOOOOOOOOOOO........................ooo                     ",
"                                          oooOOO.........XXXOOOOOO;;;OOO........................XXX                     ",
"                                          oooOOO.........XXXOOOOOO;;;OOO........................XXX                     ",
"                                          oooOOO.........XXXOOOOOO;;;OOO........................XXX                     ",
"                                          oooOOOXXX......XXXOOOOOOjjjOOO...........................ooo                  ",
"                                          oooOOOXXX......XXXOOOOOOjjjOOO...........................ooo                  ",
"                                          oooOOOXXX......XXXOOOOOOjjjOOO...........................ooo                  ",
"                                          oooOOO;;;XXXXXXOOOOOOOOO;;;OOO......XXXXXXXXX............ooo                  ",
"                                          oooOOO;;;XXXXXXOOOOOOOOO;;;OOO......XXXXXXXXX............ooo                  ",
"                                          oooOOO;;;XXXXXXOOOOOOOOO;;;OOO......XXXXXXXXX............ooo                  ",
"                                          oooOOOjjjjjjOOOOOOOOOOOOOOO............ooooooXXXXXX......ooo                  ",
"                                          oooOOOjjjjjjOOOOOOOOOOOOOOO............ooooooXXXXXX......ooo                  ",
"                                          oooOOOjjjjjjOOOOOOOOOOOOOOO............ooooooXXXXXX......ooo                  ",
"                                             oooOOOjjjjjj***&&&$$$&&&***............XXXjjjjjjjjjXXXooo                  ",
"                                             oooOOOjjjjjj***&&&$$$&&&***............XXXjjjjjjjjjXXXooo                  ",
"                                             oooOOOjjjjjj***&&&$$$&&&***............XXXjjjjjjjjjXXXooo                  ",
"                                                ******&&&$$$$$$$$$jjj$$$***.........XXXXXXjjj   jjjooo                  ",
"                                                ******&&&$$$$$$$$$jjj$$$***.........XXXXXXjjj   jjjooo                  ",
"                                                ******&&&$$$$$$$$$jjj$$$***.........XXXXXXjjj   jjjooo                  ",
"                                                jjj&&&$$$$$$*********&&&***XXXXXXXXXXXXXXXjjj      jjj                  ",
"                                                jjj&&&$$$$$$*********&&&***XXXXXXXXXXXXXXXjjj      jjj                  ",
"                                                jjj&&&$$$$$$*********&&&***XXXXXXXXXXXXXXXjjj      jjj                  ",
"               qqqqqqqqq777                        jjj***&&&&&&&&&&&&***jjjooooooXXXXXXXXXXXXjjj                        ",
"               qqqqqqqqq777                        jjj***&&&&&&&&&&&&***jjjooooooXXXXXXXXXXXXjjj                        ",
"               qqqqqqqqq777                        jjj***&&&&&&&&&&&&***jjjooooooXXXXXXXXXXXXjjj                        ",
"            wwwwwwwww777777                              jjjjjj******jjjjjjjjjjjjoooXXXXXXXXXjjj                        ",
"            wwwwwwwww777777                              jjjjjj******jjjjjjjjjjjjoooXXXXXXXXXjjj                        ",
"            wwwwwwwww777777                              jjjjjj******jjjjjjjjjjjjoooXXXXXXXXXjjj                        ",
"         OOOOOOwww777777777                           jjj&&&***XXXjjj***&&&jjj      ooooooXXXjjj                        ",
"         OOOOOOwww777777777                           jjj&&&***XXXjjj***&&&jjj      ooooooXXXjjj                        ",
"         OOOOOOwww777777777                           jjj&&&***XXXjjj***&&&jjj      ooooooXXXjjj                        ",
"      eeeOOOwwwqqqqqq777777@@@                  ******&&&$$$&&&...XXXjjj$$$&&&***jjj      ooojjj                        ",
"      eeeOOOwwwqqqqqq777777@@@                  ******&&&$$$&&&...XXXjjj$$$&&&***jjj      ooojjj                        ",
"      eeeOOOwwwqqqqqq777777@@@                  ******&&&$$$&&&...XXXjjj$$$&&&***jjj      ooojjj                        ",
"      eeewww777qqqqqqeee777OOO@@@         ******&&&jjj$$$$$$$$$...XXXjjjjjj$$$$$$***         jjj                        ",
"      eeewww777qqqqqqeee777OOO@@@         ******&&&jjj$$$$$$$$$...XXXjjjjjj$$$$$$***         jjj                        ",
"      eeewww777qqqqqqeee777OOO@@@         ******&&&jjj$$$$$$$$$...XXXjjjjjj$$$$$$***         jjj                        ",
"      eee999999999eeeqqq777OOOOOOjjjjjj***$$$$$$jjjjjj&&&$$$&&&...XXXjjjjjj***&&&$$$jjj                                 ",
"      eee999999999eeeqqq777OOOOOOjjjjjj***$$$$$$jjjjjj&&&$$$&&&...XXXjjjjjj***&&&$$$jjj                                 ",
"      eee999999999eeeqqq777OOOOOOjjjjjj***$$$$$$jjjjjj&&&$$$&&&...XXXjjjjjj***&&&$$$jjj                                 ",
"      999999999999999999999@@@+++@@@OOO@@@jjjjjj      ***&&&......jjj+++OOOjjj&&&$$$&&&jjj                              ",
"      999999999999999999999@@@+++@@@OOO@@@jjjjjj      ***&&&......jjj+++OOOjjj&&&$$$&&&jjj                              ",
"      999999999999999999999@@@+++@@@OOO@@@jjjjjj      ***&&&......jjj+++OOOjjj&&&$$$&&&jjj                              ",
"         jjjOOOOOOjjj@@@@@@OOOOOO@@@OOOjjj            jjjoooXXX...jjjOOOOOO@@@OOO&&&jjj                                 ",
"         jjjOOOOOOjjj@@@@@@OOOOOO@@@OOOjjj            jjjoooXXX...jjjOOOOOO@@@OOO&&&jjj                                 ",
"         jjjOOOOOOjjj@@@@@@OOOOOO@@@OOOjjj            jjjoooXXX...jjjOOOOOO@@@OOO&&&jjj                                 ",
"            jjj@@@OOOOOOOOOOOO+++jjjjjj               jjjXXXjjj...jjjOOOOOOOOO@@@jjj                                    ",
"            jjj@@@OOOOOOOOOOOO+++jjjjjj               jjjXXXjjj...jjjOOOOOOOOO@@@jjj                                    ",
"            jjj@@@OOOOOOOOOOOO+++jjjjjj               jjjXXXjjj...jjjOOOOOOOOO@@@jjj                                    ",
"            jjjOOO+++@@@jjjjjjjjj                     jjjXXXjjj...jjj@@@OOOOOO+++jjj                                    ",
"            jjjOOO+++@@@jjjjjjjjj                     jjjXXXjjj...jjj@@@OOOOOO+++jjj                                    ",
"            jjjOOO+++@@@jjjjjjjjj                     jjjXXXjjj...jjj@@@OOOOOO+++jjj                                    ",
"               jjjjjj                                 XXXjjj   jjj...jjjOOO@@@jjj                                       ",
"               jjjjjj                                 XXXjjj   jjj...jjjOOO@@@jjj                                       ",
"               jjjjjj                                 XXXjjj   jjj...jjjOOO@@@jjj                                       ",
"                                                   jjjXXXjjj   jjj...jjjjjjjjj                                          ",
"                                                   jjjXXXjjj   jjj...jjjjjjjjj                                          ",
"                                                   jjjXXXjjj   jjj...jjjjjjjjj                                          ",
"                                                   jjjXXXjjj   jjj...ooojjj                                             ",
"                                                   jjjXXXjjj   jjj...ooojjj                                             ",
"                                                   jjjXXXjjj   jjj...ooojjj                                             ",
"                                             jjjjjjjjjjjjjjjjjjjjjXXXooojjjjjj                                          ",
"                                             jjjjjjjjjjjjjjjjjjjjjXXXooojjjjjj                                          ",
"                                             jjjjjjjjjjjjjjjjjjjjjXXXooojjjjjj                                          ",
"                                             jjj++++++++++++jjjOOOOOOOOOOOOjjj                                          ",
"                                             jjj++++++++++++jjjOOOOOOOOOOOOjjj                                          ",
"                                             jjj++++++++++++jjjOOOOOOOOOOOOjjj                                          ",
"                                             jjj@@@++++++@@@jjj+++OOOOOO+++jjj                                          ",
"                                             jjj@@@++++++@@@jjj+++OOOOOO+++jjj                                          ",
"                                             jjj@@@++++++@@@jjj+++OOOOOO+++jjj                                          ",
"                                          jjjjjjjjj@@@+++jjj   jjj@@@@@@###jjjjjj                                       ",
"                                          jjjjjjjjj@@@+++jjj   jjj@@@@@@###jjjjjj                                       ",
"                                          jjjjjjjjj@@@+++jjj   jjj@@@@@@###jjjjjj                                       ",
"                                 jjjjjjjjj######++++++###jjjjjjjjj###OOOOOOOOOjjj                                       ",
"                                 jjjjjjjjj######++++++###jjjjjjjjj###OOOOOOOOOjjj                                       ",
"                                 jjjjjjjjj######++++++###jjjjjjjjj###OOOOOOOOOjjj                                       ",
"                              jjj###%%%%%%%%%%%%++++++######jjjjjj+++%%%%%%%%%+++jjj                                    ",
"                              jjj###%%%%%%%%%%%%++++++######jjjjjj+++%%%%%%%%%+++jjj                                    ",
"                              jjj###%%%%%%%%%%%%++++++######jjjjjj+++%%%%%%%%%+++jjj                                    ",
"                              @@@+++++++++++++++++++++++++++jjjjjj###%%%%%%%%%%%%jjj                                    ",
"                              @@@+++++++++++++++++++++++++++jjjjjj###%%%%%%%%%%%%jjj                                    ",
"                              @@@+++++++++++++++++++++++++++jjjjjj###%%%%%%%%%%%%jjj                                    ",
"                              jjjjjjjjjjjjjjjjjjjjjjjjjjjjjjjjjjjj+++OOOOOOOOO+++jjj                                    ",
"                              jjjjjjjjjjjjjjjjjjjjjjjjjjjjjjjjjjjj+++OOOOOOOOO+++jjj                                    ",
"                              jjjjjjjjjjjjjjjjjjjjjjjjjjjjjjjjjjjj+++OOOOOOOOO+++jjj                                    ",
"                                                               jjjjjjjjjjjjjjjjjjjjj                                    ",
"                                                               jjjjjjjjjjjjjjjjjjjjj                                    ",
"                                                               jjjjjjjjjjjjjjjjjjjjj                                    ",
"                                                                                                                        ",
"                                                                                                                        ",
"                                                                                                                        "
};
