/* XPM */
static char *_7d148f6190947ec9b25e48b46d2b907RLMrJDVTwRLDuWP6[] = {
/* columns rows colors chars-per-pixel */
"120 120 45 1 ",
"  c None",
". c #0040E8",
"X c #002098",
"o c #000060",
"O c #F8F8F8",
"+ c gray69",
"@ c gray44",
"# c #A80001",
"$ c #F8F898",
"% c #F82020",
"& c #F8A850",
"* c #985010",
"= c #F8D801",
"- c #20A0F8",
"; c #009800",
": c #B8E8F8",
"> c #0098F8",
", c #70D8F8",
"< c #30C8F8",
"1 c #F8D800",
"2 c #0050D0",
"3 c #0088C0",
"4 c #90F8F8",
"5 c #78E0F8",
"6 c #00B8D8",
"7 c #008800",
"8 c #0050F8",
"9 c #006000",
"0 c black",
"q c #00D800",
"w c #78E878",
"e c #00B000",
"r c #00D8E8",
"t c #18E8F8",
"y c #0068F8",
"u c #50F8F8",
"i c #00F0F8",
"p c #98F8F8",
"a c #0090F8",
"s c #D8F8F8",
"d c #70F8F8",
"f c #0080F8",
"g c #0078D8",
"h c #00B8F8",
"j c #101010",
/* pixels */
"                                                                                                                        ",
"                                                                                                                        ",
"                                                                                                                        ",
"                                                                                                                        ",
"                                                                                                                        ",
"                                                                                                                        ",
"                                                                                                                        ",
"                                                                                                                        ",
"                                                                                                                        ",
"                                                                                                                        ",
"                                                                                                                        ",
"                                                                                                                        ",
"                                                                                                                        ",
"                                                                                                                        ",
"                                        OOO                                 OOO                                         ",
"                                        OOO                                 OOO                                         ",
"                                        OOO                                 OOO                                         ",
"                                                                                                                        ",
"                                                                                                                        ",
"                                                                                                                        ",
"                                                                                                                        ",
"                                                                                                                        ",
"                                                                                                                        ",
"                                                       OOO                                                              ",
"                                                       OOO                                                              ",
"                                                       OOO                                                              ",
"                                                                                                                        ",
"                                                                                                                        ",
"                                                                                                                        ",
"                                                 XXX                           XXXooo                                   ",
"                                                 XXX                           XXXooo                                   ",
"                                                 XXX                           XXXooo                                   ",
"                            OOO               ooo...XXX      XXXXXXXXXXXXoooXXX&&&ooo                                   ",
"                            OOO               ooo...XXX      XXXXXXXXXXXXoooXXX&&&ooo                                   ",
"                            OOO               ooo...XXX      XXXXXXXXXXXXoooXXX&&&ooo                                   ",
"                                              ooo&&&...XXXXXX............$$$$$$&&&ooooooooo                             ",
"                                              ooo&&&...XXXXXX............$$$$$$&&&ooooooooo                             ",
"                                              ooo&&&...XXXXXX............$$$$$$&&&ooooooooo                             ",
"                                              ooo$$$XXX.........XXXXXX......$$$...ooo...XXXooo                          ",
"                                              ooo$$$XXX.........XXXXXX......$$$...ooo...XXXooo                          ",
"                                              ooo$$$XXX.........XXXXXX......$$$...ooo...XXXooo                          ",
"                                                 ooo.........oooOOOOOOXXX......XXXooo......XXXooo                       ",
"                                                 ooo.........oooOOOOOOXXX......XXXooo......XXXooo                       ",
"                                                 ooo.........oooOOOOOOXXX......XXXooo......XXXooo                       ",
"                                              oooOOOOOOXXXoooOOOOOOOOOOOO............ooojjjXXXXXXooo                    ",
"                                              oooOOOOOOXXXoooOOOOOOOOOOOO............ooojjjXXXXXXooo                    ",
"                                              oooOOOOOOXXXoooOOOOOOOOOOOO............ooojjjXXXXXXooo                    ",
"                                              oooOOO;;;OOOOOO;;;OOOOOOOOO...............ooojjjoooXXX                    ",
"                                              oooOOO;;;OOOOOO;;;OOOOOOOOO...............ooojjjoooXXX                    ",
"                                              oooOOO;;;OOOOOO;;;OOOOOOOOO...............ooojjjoooXXX                    ",
"                                              ooo;;;jjjOOO;;;jjj;;;OOOOOO..................XXXjjjoooooo                 ",
"                                              ooo;;;jjjOOO;;;jjj;;;OOOOOO..................XXXjjjoooooo                 ",
"                                              ooo;;;jjjOOO;;;jjj;;;OOOOOO..................XXXjjjoooooo                 ",
"                                              oooOOO;;;OOOOOO;;;OOOOOOXXX.....................jjj   ooo                 ",
"                                              oooOOO;;;OOOOOO;;;OOOOOOXXX.....................jjj   ooo                 ",
"                                              oooOOO;;;OOOOOO;;;OOOOOOXXX.....................jjj   ooo                 ",
"                                              ooojjjjjj***************.........XXX............XXXjjj                    ",
"                                              ooojjjjjj***************.........XXX............XXXjjj                    ",
"                                              ooojjjjjj***************.........XXX............XXXjjj                    ",
"                                              ***$$$jjjjjj$$$$$$$$$$$$$$$.........ooo............jjj                    ",
"                                              ***$$$jjjjjj$$$$$$$$$$$$$$$.........ooo............jjj                    ",
"                                              ***$$$jjjjjj$$$$$$$$$$$$$$$.........ooo............jjj                    ",
"                                              jjj&&&$$$$$$$$$jjjjjj$$$$$$$$$.........ooo.........XXXooo                 ",
"                                              jjj&&&$$$$$$$$$jjjjjj$$$$$$$$$.........ooo.........XXXooo                 ",
"                                              jjj&&&$$$$$$$$$jjjjjj$$$$$$$$$.........ooo.........XXXooo                 ",
"                                                 jjj&&&$$$$$$###%%%jjj$$$&&&XXX......XXXoooXXX...XXXooo                 ",
"                                                 jjj&&&$$$$$$###%%%jjj$$$&&&XXX......XXXoooXXX...XXXooo                 ",
"                                                 jjj&&&$$$$$$###%%%jjj$$$&&&XXX......XXXoooXXX...XXXooo                 ",
"          jjj###                                    jjj***&&&&&&###%%%***XXX.........XXXXXXjjjXXXXXXXXXooo              ",
"          jjj###                                    jjj***&&&&&&###%%%***XXX.........XXXXXXjjjXXXXXXXXXooo              ",
"          jjj###                                    jjj***&&&&&&###%%%***XXX.........XXXXXXjjjXXXXXXXXXooo              ",
"       jjj@@@OOO###         jjj###                     ooojjjjjjjjjjjjjjjjjjXXX...XXXXXXXXXjjjjjjXXXXXXooo              ",
"       jjj@@@OOO###         jjj###                     ooojjjjjjjjjjjjjjjjjjXXX...XXXXXXXXXjjjjjjXXXXXXooo              ",
"       jjj@@@OOO###         jjj###                     ooojjjjjjjjjjjjjjjjjjXXX...XXXXXXXXXjjjjjjXXXXXXooo              ",
"       jjj@@@@@@OOO###   jjj@@@OOO###                     ooo***&&&&&&oooooojjjXXXXXXXXXXXXjjj   jjjXXXooo              ",
"       jjj@@@@@@OOO###   jjj@@@OOO###                     ooo***&&&&&&oooooojjjXXXXXXXXXXXXjjj   jjjXXXooo              ",
"       jjj@@@@@@OOO###   jjj@@@OOO###                     ooo***&&&&&&oooooojjjXXXXXXXXXXXXjjj   jjjXXXooo              ",
"       jjj@@@@@@OOO%%%###jjj@@@@@@OOO###                  ***&&&$$$&&&XXX$$$jjjjjjXXXXXXXXXjjj      jjjooo              ",
"       jjj@@@@@@OOO%%%###jjj@@@@@@OOO###                  ***&&&$$$&&&XXX$$$jjjjjjXXXXXXXXXjjj      jjjooo              ",
"       jjj@@@@@@OOO%%%###jjj@@@@@@OOO###                  ***&&&$$$&&&XXX$$$jjjjjjXXXXXXXXXjjj      jjjooo              ",
"       jjj@@@@@@@@@OOO%%%jjj@@@@@@OOO%%%###oooooo      ooo***$$$$$$XXX***&&&$$$jjjoooXXXXXXjjj         jjj              ",
"       jjj@@@@@@@@@OOO%%%jjj@@@@@@OOO%%%###oooooo      ooo***$$$$$$XXX***&&&$$$jjjoooXXXXXXjjj         jjj              ",
"       jjj@@@@@@@@@OOO%%%jjj@@@@@@OOO%%%###oooooo      ooo***$$$$$$XXX***&&&$$$jjjoooXXXXXXjjj         jjj              ",
"          jjj@@@@@@OOO%%%jjj@@@@@@@@@OOO###jjjjjjoooooo...XXX$$$......XXX***$$$&&&***oooXXXjjj                          ",
"          jjj@@@@@@OOO%%%jjj@@@@@@@@@OOO###jjjjjjoooooo...XXX$$$......XXX***$$$&&&***oooXXXjjj                          ",
"          jjj@@@@@@OOO%%%jjj@@@@@@@@@OOO###jjjjjjoooooo...XXX$$$......XXX***$$$&&&***oooXXXjjj                          ",
"          jjj@@@@@@@@@+++jjj@@@@@@@@@OOO%%%jjjOOOjjj...XXX...XXX......oooooo***$$$&&&***ooojjjjjj@@@                    ",
"          jjj@@@@@@@@@+++jjj@@@@@@@@@OOO%%%jjjOOOjjj...XXX...XXX......oooooo***$$$&&&***ooojjjjjj@@@                    ",
"          jjj@@@@@@@@@+++jjj@@@@@@@@@OOO%%%jjjOOOjjj...XXX...XXX......oooooo***$$$&&&***ooojjjjjj@@@                    ",
"             jjjjjjjjj+++jjj@@@@@@@@@@@@OOO===OOOOOOXXXooo............ooo      ***@@@OOOjjj+++OOOOOO@@@                 ",
"             jjjjjjjjj+++jjj@@@@@@@@@@@@OOO===OOOOOOXXXooo............ooo      ***@@@OOOjjj+++OOOOOO@@@                 ",
"             jjjjjjjjj+++jjj@@@@@@@@@@@@OOO===OOOOOOXXXooo............ooo      ***@@@OOOjjj+++OOOOOO@@@                 ",
"             jjj@@@@@@@@@######@@@@@@@@@OOO===%%%OOOjjj   ooo......ooo         jjjOOO@@@OOOOOO@@@OOO+++jjj              ",
"             jjj@@@@@@@@@######@@@@@@@@@OOO===%%%OOOjjj   ooo......ooo         jjjOOO@@@OOOOOO@@@OOO+++jjj              ",
"             jjj@@@@@@@@@######@@@@@@@@@OOO===%%%OOOjjj   ooo......ooo         jjjOOO@@@OOOOOO@@@OOO+++jjj              ",
"                jjj@@@@@@+++jjjjjjjjjjjjjjjOOO%%%OOOjjj   ooojjjooo               jjj+++OOO@@@jjjOOO@@@OOOjjj           ",
"                jjj@@@@@@+++jjjjjjjjjjjjjjjOOO%%%OOOjjj   ooojjjooo               jjj+++OOO@@@jjjOOO@@@OOOjjj           ",
"                jjj@@@@@@+++jjjjjjjjjjjjjjjOOO%%%OOOjjj   ooojjjooo               jjj+++OOO@@@jjjOOO@@@OOOjjj           ",
"                   jjj@@@+++###jjj@@@@@@@@@OOOjjjjjjjjjoooooo                     jjj@@@+++OOOjjjjjj@@@OOOjjj           ",
"                   jjj@@@+++###jjj@@@@@@@@@OOOjjjjjjjjjoooooo                     jjj@@@+++OOOjjjjjj@@@OOOjjj           ",
"                   jjj@@@+++###jjj@@@@@@@@@OOOjjjjjjjjjoooooo                     jjj@@@+++OOOjjjjjj@@@OOOjjj           ",
"                      jjjjjjjjjjjj@@@@@@@@@OOOjjj                                    jjjjjjjjj      jjjjjjjjj           ",
"                      jjjjjjjjjjjj@@@@@@@@@OOOjjj                                    jjjjjjjjj      jjjjjjjjj           ",
"                      jjjjjjjjjjjj@@@@@@@@@OOOjjj                                    jjjjjjjjj      jjjjjjjjj           ",
"                                  jjj@@@@@@jjj                                                                          ",
"                                  jjj@@@@@@jjj                                                                          ",
"                                  jjj@@@@@@jjj                                                                          ",
"                                     jjjjjj                                                                             ",
"                                     jjjjjj                                                                             ",
"                                     jjjjjj                                                                             ",
"                                                                                                                        ",
"                                                                                                                        ",
"                                                                                                                        ",
"                                                                                                                        ",
"                                                                                                                        ",
"                                                                                                                        ",
"                                                                                                                        ",
"                                                                                                                        ",
"                                                                                                                        ",
"                                                                                                                        "
};
