/* XPM */
static char *_6ef776659d345cedd7d2cf97bc8f384SqdYG7Q5ZGUUWF1p[] = {
/* columns rows colors chars-per-pixel */
"120 120 45 1 ",
"  c None",
". c #0040E8",
"X c #002098",
"o c #000060",
"O c #F8F8F8",
"+ c gray69",
"@ c gray44",
"# c #A80001",
"$ c #F8F898",
"% c #F82020",
"& c #F8A850",
"* c #985010",
"= c #F8D801",
"- c #20A0F8",
"; c #009800",
": c #B8E8F8",
"> c #0098F8",
", c #70D8F8",
"< c #30C8F8",
"1 c #F8D800",
"2 c #0050D0",
"3 c #0088C0",
"4 c #90F8F8",
"5 c #78E0F8",
"6 c #00B8D8",
"7 c #008800",
"8 c #0050F8",
"9 c #006000",
"0 c black",
"q c #00D800",
"w c #78E878",
"e c #00B000",
"r c #00D8E8",
"t c #18E8F8",
"y c #0068F8",
"u c #50F8F8",
"i c #00F0F8",
"p c #98F8F8",
"a c #0090F8",
"s c #D8F8F8",
"d c #70F8F8",
"f c #0080F8",
"g c #0078D8",
"h c #00B8F8",
"j c #101010",
/* pixels */
"                                                                                                                        ",
"                                                                                                                        ",
"                                                                                                                        ",
"                                                                                                                        ",
"                                                                                                                        ",
"                                                                                                                        ",
"                                                                                                                        ",
"                                                                                                                        ",
"                                                                                                                        ",
"                                                                                                                        ",
"                                                                                                                        ",
"                                                                                                                        ",
"                                                                                                                        ",
"                                                                                                                        ",
"                                         OOO                                 OOO                                        ",
"                                         OOO                                 OOO                                        ",
"                                         OOO                                 OOO                                        ",
"                                                                                                                        ",
"                                                                                                                        ",
"                                                                                                                        ",
"                                                                                                                        ",
"                                                                                                                        ",
"                                                                                                                        ",
"                                                              OOO                                                       ",
"                                                              OOO                                                       ",
"                                                              OOO                                                       ",
"                                                                                                                        ",
"                                                                                                                        ",
"                                                                                                                        ",
"                                   oooXXX                           XXX                                                 ",
"                                   oooXXX                           XXX                                                 ",
"                                   oooXXX                           XXX                                                 ",
"                                   ooo&&&XXXoooXXXXXXXXXXXX      XXX...ooo               OOO                            ",
"                                   ooo&&&XXXoooXXXXXXXXXXXX      XXX...ooo               OOO                            ",
"                                   ooo&&&XXXoooXXXXXXXXXXXX      XXX...ooo               OOO                            ",
"                             ooooooooo&&&$$$$$$............XXXXXX...&&&ooo                                              ",
"                             ooooooooo&&&$$$$$$............XXXXXX...&&&ooo                                              ",
"                             ooooooooo&&&$$$$$$............XXXXXX...&&&ooo                                              ",
"                          oooXXX...ooo...$$$......XXXXXX.........XXX$$$ooo                                              ",
"                          oooXXX...ooo...$$$......XXXXXX.........XXX$$$ooo                                              ",
"                          oooXXX...ooo...$$$......XXXXXX.........XXX$$$ooo                                              ",
"                       oooXXX......oooXXX......XXXOOOOOOooo.........ooo                                                 ",
"                       oooXXX......oooXXX......XXXOOOOOOooo.........ooo                                                 ",
"                       oooXXX......oooXXX......XXXOOOOOOooo.........ooo                                                 ",
"                    oooXXXXXXjjjooo............OOOOOOOOOOOOoooXXXOOOOOOooo                                              ",
"                    oooXXXXXXjjjooo............OOOOOOOOOOOOoooXXXOOOOOOooo                                              ",
"                    oooXXXXXXjjjooo............OOOOOOOOOOOOoooXXXOOOOOOooo                                              ",
"                    XXXooojjjooo...............OOOOOOOOO;;;OOOOOO;;;OOOooo                                              ",
"                    XXXooojjjooo...............OOOOOOOOO;;;OOOOOO;;;OOOooo                                              ",
"                    XXXooojjjooo...............OOOOOOOOO;;;OOOOOO;;;OOOooo                                              ",
"                 oooooojjjXXX..................OOOOOO;;;jjj;;;OOOjjj;;;ooo                                              ",
"                 oooooojjjXXX..................OOOOOO;;;jjj;;;OOOjjj;;;ooo                                              ",
"                 oooooojjjXXX..................OOOOOO;;;jjj;;;OOOjjj;;;ooo                                              ",
"                 ooo   jjj.....................XXXOOOOOO;;;OOOOOO;;;OOOooo                                              ",
"                 ooo   jjj.....................XXXOOOOOO;;;OOOOOO;;;OOOooo                                              ",
"                 ooo   jjj.....................XXXOOOOOO;;;OOOOOO;;;OOOooo                                              ",
"                    jjjXXX............XXX.........***************jjjjjjooo                                              ",
"                    jjjXXX............XXX.........***************jjjjjjooo                                              ",
"                    jjjXXX............XXX.........***************jjjjjjooo                                              ",
"                    jjj............ooo.........$$$$$$$$$$$$$$$jjjjjj$$$***                                              ",
"                    jjj............ooo.........$$$$$$$$$$$$$$$jjjjjj$$$***                                              ",
"                    jjj............ooo.........$$$$$$$$$$$$$$$jjjjjj$$$***                                              ",
"                 oooXXX.........ooo.........$$$$$$$$$jjjjjj$$$$$$$$$&&&jjj                                              ",
"                 oooXXX.........ooo.........$$$$$$$$$jjjjjj$$$$$$$$$&&&jjj                                              ",
"                 oooXXX.........ooo.........$$$$$$$$$jjjjjj$$$$$$$$$&&&jjj                                              ",
"                 oooXXX...XXXoooXXX......XXX&&&$$$jjj%%%###$$$$$$&&&jjj                                                 ",
"                 oooXXX...XXXoooXXX......XXX&&&$$$jjj%%%###$$$$$$&&&jjj                                                 ",
"                 oooXXX...XXXoooXXX......XXX&&&$$$jjj%%%###$$$$$$&&&jjj                                                 ",
"              oooXXXXXXXXXjjjXXXXXX.........XXX***%%%###&&&&&&***jjj                                    ###jjj          ",
"              oooXXXXXXXXXjjjXXXXXX.........XXX***%%%###&&&&&&***jjj                                    ###jjj          ",
"              oooXXXXXXXXXjjjXXXXXX.........XXX***%%%###&&&&&&***jjj                                    ###jjj          ",
"              oooXXXXXXjjjjjjXXXXXXXXX...XXXjjjjjjjjjjjjjjjjjjooo                     ###jjj         ###OOO@@@jjj       ",
"              oooXXXXXXjjjjjjXXXXXXXXX...XXXjjjjjjjjjjjjjjjjjjooo                     ###jjj         ###OOO@@@jjj       ",
"              oooXXXXXXjjjjjjXXXXXXXXX...XXXjjjjjjjjjjjjjjjjjjooo                     ###jjj         ###OOO@@@jjj       ",
"              oooXXXjjj   jjjXXXXXXXXXXXXjjjoooooo&&&&&&***ooo                     ###OOO@@@jjj   ###OOO@@@@@@jjj       ",
"              oooXXXjjj   jjjXXXXXXXXXXXXjjjoooooo&&&&&&***ooo                     ###OOO@@@jjj   ###OOO@@@@@@jjj       ",
"              oooXXXjjj   jjjXXXXXXXXXXXXjjjoooooo&&&&&&***ooo                     ###OOO@@@jjj   ###OOO@@@@@@jjj       ",
"              ooojjj      jjjXXXXXXXXXjjjjjj$$$XXX&&&$$$&&&***                  ###OOO@@@@@@jjj###%%%OOO@@@@@@jjj       ",
"              ooojjj      jjjXXXXXXXXXjjjjjj$$$XXX&&&$$$&&&***                  ###OOO@@@@@@jjj###%%%OOO@@@@@@jjj       ",
"              ooojjj      jjjXXXXXXXXXjjjjjj$$$XXX&&&$$$&&&***                  ###OOO@@@@@@jjj###%%%OOO@@@@@@jjj       ",
"              jjj         jjjXXXXXXooojjj$$$&&&***XXX$$$$$$***ooo      oooooo###%%%OOO@@@@@@jjj%%%OOO@@@@@@@@@jjj       ",
"              jjj         jjjXXXXXXooojjj$$$&&&***XXX$$$$$$***ooo      oooooo###%%%OOO@@@@@@jjj%%%OOO@@@@@@@@@jjj       ",
"              jjj         jjjXXXXXXooojjj$$$&&&***XXX$$$$$$***ooo      oooooo###%%%OOO@@@@@@jjj%%%OOO@@@@@@@@@jjj       ",
"                          jjjXXXooo***&&&$$$***XXX......$$$XXX...oooooojjjjjj###OOO@@@@@@@@@jjj%%%OOO@@@@@@jjj          ",
"                          jjjXXXooo***&&&$$$***XXX......$$$XXX...oooooojjjjjj###OOO@@@@@@@@@jjj%%%OOO@@@@@@jjj          ",
"                          jjjXXXooo***&&&$$$***XXX......$$$XXX...oooooojjjjjj###OOO@@@@@@@@@jjj%%%OOO@@@@@@jjj          ",
"                    @@@jjjjjjooo***&&&$$$***oooooo......XXX...XXX...jjjOOOjjj%%%OOO@@@@@@@@@jjj+++@@@@@@@@@jjj          ",
"                    @@@jjjjjjooo***&&&$$$***oooooo......XXX...XXX...jjjOOOjjj%%%OOO@@@@@@@@@jjj+++@@@@@@@@@jjj          ",
"                    @@@jjjjjjooo***&&&$$$***oooooo......XXX...XXX...jjjOOOjjj%%%OOO@@@@@@@@@jjj+++@@@@@@@@@jjj          ",
"                 @@@OOOOOO+++jjjOOO@@@***      ooo............oooXXXOOOOOO===OOO@@@@@@@@@@@@jjj+++jjjjjjjjj             ",
"                 @@@OOOOOO+++jjjOOO@@@***      ooo............oooXXXOOOOOO===OOO@@@@@@@@@@@@jjj+++jjjjjjjjj             ",
"                 @@@OOOOOO+++jjjOOO@@@***      ooo............oooXXXOOOOOO===OOO@@@@@@@@@@@@jjj+++jjjjjjjjj             ",
"              jjj+++OOO@@@OOOOOO@@@OOOjjj         ooo......ooo   jjjOOO%%%===OOO@@@@@@@@@######@@@@@@@@@jjj             ",
"              jjj+++OOO@@@OOOOOO@@@OOOjjj         ooo......ooo   jjjOOO%%%===OOO@@@@@@@@@######@@@@@@@@@jjj             ",
"              jjj+++OOO@@@OOOOOO@@@OOOjjj         ooo......ooo   jjjOOO%%%===OOO@@@@@@@@@######@@@@@@@@@jjj             ",
"           jjjOOO@@@OOOjjj@@@OOO+++jjj               ooojjjooo   jjjOOO%%%OOOjjjjjjjjjjjjjjj+++@@@@@@jjj                ",
"           jjjOOO@@@OOOjjj@@@OOO+++jjj               ooojjjooo   jjjOOO%%%OOOjjjjjjjjjjjjjjj+++@@@@@@jjj                ",
"           jjjOOO@@@OOOjjj@@@OOO+++jjj               ooojjjooo   jjjOOO%%%OOOjjjjjjjjjjjjjjj+++@@@@@@jjj                ",
"           jjjOOO@@@jjjjjjOOO+++@@@jjj                     oooooojjjjjjjjjOOO@@@@@@@@@jjj###+++@@@jjj                   ",
"           jjjOOO@@@jjjjjjOOO+++@@@jjj                     oooooojjjjjjjjjOOO@@@@@@@@@jjj###+++@@@jjj                   ",
"           jjjOOO@@@jjjjjjOOO+++@@@jjj                     oooooojjjjjjjjjOOO@@@@@@@@@jjj###+++@@@jjj                   ",
"           jjjjjjjjj      jjjjjjjjj                                    jjjOOO@@@@@@@@@jjjjjjjjjjjj                      ",
"           jjjjjjjjj      jjjjjjjjj                                    jjjOOO@@@@@@@@@jjjjjjjjjjjj                      ",
"           jjjjjjjjj      jjjjjjjjj                                    jjjOOO@@@@@@@@@jjjjjjjjjjjj                      ",
"                                                                          jjj@@@@@@jjj                                  ",
"                                                                          jjj@@@@@@jjj                                  ",
"                                                                          jjj@@@@@@jjj                                  ",
"                                                                             jjjjjj                                     ",
"                                                                             jjjjjj                                     ",
"                                                                             jjjjjj                                     ",
"                                                                                                                        ",
"                                                                                                                        ",
"                                                                                                                        ",
"                                                                                                                        ",
"                                                                                                                        ",
"                                                                                                                        ",
"                                                                                                                        ",
"                                                                                                                        ",
"                                                                                                                        ",
"                                                                                                                        "
};
