/* XPM */
static char *d845051a74394ebcf367f83ec1d62ec7r4evx3IBFUBZao7v[] = {
/* columns rows colors chars-per-pixel */
"120 120 7 1 ",
"  c None",
". c #008000",
"X c #00A800",
"o c #00D100",
"O c green",
"+ c #82FF86",
"@ c white",
/* pixels */
"                                                                                                                        ",
"                                                                                                                        ",
"                                                                                                                        ",
"                                                                                                                        ",
"                                                                                                                        ",
"                                                                                                                        ",
"                                                                                                                        ",
"                                                                                                                        ",
"                                                                                                                        ",
"                                                                                                                        ",
"                                                                                                                        ",
"                                                                                                                        ",
"                                                                                                                        ",
"                                                                                                                        ",
"                                                                                                                        ",
"                                                                                                                        ",
"                                                                                                                        ",
"                                                                                                                        ",
"                                                                                                                        ",
"                                                                                                                        ",
"                                                                                                                        ",
"                                                                                                                        ",
"                                                                                                                        ",
"                                                                                                                        ",
"                                                                                                                        ",
"                                                                                                                        ",
"                                                                                                                        ",
"                                                                                                                        ",
"                                                                                                                        ",
"                                                                                                                        ",
"                                                                                                                        ",
"                                                                                                                        ",
"                                                                                                                        ",
"                                                                                                                        ",
"                                                                                                                        ",
"                                                                                                                        ",
"                                                                                                                        ",
"                                            .................................                                           ",
"                                            .................................                                           ",
"                                            .................................                                           ",
"                                            .................................                                           ",
"                                            .................................                                           ",
"                                        ....@@@@@@@@@@+++++++++++++oooooooooo....                                       ",
"                                        ....@@@@@@@@@@+++++++++++++oooooooooo....                                       ",
"                                        ....@@@@@@@@@@+++++++++++++oooooooooo....                                       ",
"                                        ....@@@@@@@@@@+++++++++++++oooooooooo....                                       ",
"                                        ....@@@@@@@@@@+++++++++++++oooooooooo....                                       ",
"                                   .....@@@@@@@@@+++++++++++++++++++++++ooooooooo.....                                  ",
"                                   .....@@@@@@@@@+++++++++++++++++++++++ooooooooo.....                                  ",
"                                   .....@@@@@@@@@+++++++++++++++++++++++ooooooooo.....                                  ",
"                                   .....@@@@@@@@@+++++++++++++++++++++++ooooooooo.....                                  ",
"                              .....XXXXXXXXXXXXXXOOOOOXXXXXXXXXXXXXOOOOOXXXXXXXXXXXXXX....                              ",
"                              .....XXXXXXXXXXXXXXOOOOOXXXXXXXXXXXXXOOOOOXXXXXXXXXXXXXX....                              ",
"                              .....XXXXXXXXXXXXXXOOOOOXXXXXXXXXXXXXOOOOOXXXXXXXXXXXXXX....                              ",
"                              .....XXXXXXXXXXXXXXOOOOOXXXXXXXXXXXXXOOOOOXXXXXXXXXXXXXX....                              ",
"                              .....XXXXXXXXXXXXXXOOOOOXXXXXXXXXXXXXOOOOOXXXXXXXXXXXXXX....                              ",
"                                   .....ooooXXXXXooooooooooooooooooooooo..............                                  ",
"                                   .....ooooXXXXXooooooooooooooooooooooo..............                                  ",
"                                   .....ooooXXXXXooooooooooooooooooooooo..............                                  ",
"                                   .....ooooXXXXXooooooooooooooooooooooo..............                                  ",
"                                        ....oooooXXXXXOOOOoooooOOOOXXXXX.........                                       ",
"                                        ....oooooXXXXXOOOOoooooOOOOXXXXX.........                                       ",
"                                        ....oooooXXXXXOOOOoooooOOOOXXXXX.........                                       ",
"                                        ....oooooXXXXXOOOOoooooOOOOXXXXX.........                                       ",
"                                        ....oooooXXXXXOOOOoooooOOOOXXXXX.........                                       ",
"                                            .....XXXXXOOOOOOOOOOOOOXXXXX.....                                           ",
"                                            .....XXXXXOOOOOOOOOOOOOXXXXX.....                                           ",
"                                            .....XXXXXOOOOOOOOOOOOOXXXXX.....                                           ",
"                                            .....XXXXXOOOOOOOOOOOOOXXXXX.....                                           ",
"                                            .....XXXXXOOOOOOOOOOOOOXXXXX.....                                           ",
"                                                 .....XXXXOOOOOXXXX.....                                                ",
"                                                 .....XXXXOOOOOXXXX.....                                                ",
"                                                 .....XXXXOOOOOXXXX.....                                                ",
"                                                 .....XXXXOOOOOXXXX.....                                                ",
"                                                      ....ooooo....                                                     ",
"                                                      ....ooooo....                                                     ",
"                                                      ....ooooo....                                                     ",
"                                                      ....ooooo....                                                     ",
"                                                      ....ooooo....                                                     ",
"                                                          .....                                                         ",
"                                                          .....                                                         ",
"                                                          .....                                                         ",
"                                                          .....                                                         ",
"                                                          .....                                                         ",
"                                                                                                                        ",
"                                                                                                                        ",
"                                                                                                                        ",
"                                                                                                                        ",
"                                                                                                                        ",
"                                                                                                                        ",
"                                                                                                                        ",
"                                                                                                                        ",
"                                                                                                                        ",
"                                                                                                                        ",
"                                                                                                                        ",
"                                                                                                                        ",
"                                                                                                                        ",
"                                                                                                                        ",
"                                                                                                                        ",
"                                                                                                                        ",
"                                                                                                                        ",
"                                                                                                                        ",
"                                                                                                                        ",
"                                                                                                                        ",
"                                                                                                                        ",
"                                                                                                                        ",
"                                                                                                                        ",
"                                                                                                                        ",
"                                                                                                                        ",
"                                                                                                                        ",
"                                                                                                                        ",
"                                                                                                                        ",
"                                                                                                                        ",
"                                                                                                                        ",
"                                                                                                                        ",
"                                                                                                                        ",
"                                                                                                                        ",
"                                                                                                                        ",
"                                                                                                                        ",
"                                                                                                                        "
};
