/* XPM */
static char *cd2ff9a044134926c855c0384a407710UwBtqafagAPpOOcN[] = {
/* columns rows colors chars-per-pixel */
"120 120 45 1 ",
"  c None",
". c #0040E8",
"X c #002098",
"o c #000060",
"O c #F8F8F8",
"+ c gray69",
"@ c gray44",
"# c #A80001",
"$ c #F8F898",
"% c #F82020",
"& c #F8A850",
"* c #985010",
"= c #F8D801",
"- c #20A0F8",
"; c #009800",
": c #B8E8F8",
"> c #0098F8",
", c #70D8F8",
"< c #30C8F8",
"1 c #F8D800",
"2 c #0050D0",
"3 c #0088C0",
"4 c #90F8F8",
"5 c #78E0F8",
"6 c #00B8D8",
"7 c #008800",
"8 c #0050F8",
"9 c #006000",
"0 c black",
"q c #00D800",
"w c #78E878",
"e c #00B000",
"r c #00D8E8",
"t c #18E8F8",
"y c #0068F8",
"u c #50F8F8",
"i c #00F0F8",
"p c #98F8F8",
"a c #0090F8",
"s c #D8F8F8",
"d c #70F8F8",
"f c #0080F8",
"g c #0078D8",
"h c #00B8F8",
"j c #101010",
/* pixels */
"                                                                                                                        ",
"                                                                                                                        ",
"                                                                                                                        ",
"                                                                                                                        ",
"                                                                                                                        ",
"                                                                                                                        ",
"                                                                                                                        ",
"                                                                       oooooo                                           ",
"                                                                       oooooo                                           ",
"                                                                       oooooo                                           ",
"                                      ooooooXXXXXXXXXXXXXXX         XXX...ooo                                           ",
"                                      ooooooXXXXXXXXXXXXXXX         XXX...ooo                                           ",
"                                      ooooooXXXXXXXXXXXXXXX         XXX...ooo                                           ",
"                                oooXXX.....................XXXXXXoooXXX...ooo@@@@@@                                     ",
"                                oooXXX.....................XXXXXXoooXXX...ooo@@@@@@                                     ",
"                                oooXXX.....................XXXXXXoooXXX...ooo@@@@@@                                     ",
"                             oooXXX.........oooXXX...............XXX......oooOOOOOO@@@                                  ",
"                             oooXXX.........oooXXX...............XXX......oooOOOOOO@@@                                  ",
"                             oooXXX.........oooXXX...............XXX......oooOOOOOO@@@                                  ",
"                          oooXXXXXXXXX......ooo...XXX...............XXX...ooojjj@@@OOOjjj                               ",
"                          oooXXXXXXXXX......ooo...XXX...............XXX...ooojjj@@@OOOjjj                               ",
"                          oooXXXXXXXXX......ooo...XXX...............XXX...ooojjj@@@OOOjjj                               ",
"                       oooXXXoooooooooXXXXXXooo&&&...XXX...............XXXooojjjOOOOOOjjj                               ",
"                       oooXXXoooooooooXXXXXXooo&&&...XXX...............XXXooojjjOOOOOOjjj                               ",
"                       oooXXXoooooooooXXXXXXooo&&&...XXX...............XXXooojjjOOOOOOjjj                               ",
"                       ooo      oooXXX......ooo$$$$$$XXXXXX...............XXXjjjOOO+++jjj                               ",
"                       ooo      oooXXX......ooo$$$$$$XXXXXX...............XXXjjjOOO+++jjj                               ",
"                       ooo      oooXXX......ooo$$$$$$XXXXXX...............XXXjjjOOO+++jjj                               ",
"                             oooXXX.........ooo............XXX.........ooo...ooo@@@@@@jjj                               ",
"                             oooXXX.........ooo............XXX.........ooo...ooo@@@@@@jjj                               ",
"                             oooXXX.........ooo............XXX.........ooo...ooo@@@@@@jjj                               ",
"                             ooo..................XXXXXXXXX...XXX......ooo...oooOOOjjj                                  ",
"                             ooo..................XXXXXXXXX...XXX......ooo...oooOOOjjj                                  ",
"                             ooo..................XXXXXXXXX...XXX......ooo...oooOOOjjj                                  ",
"                          oooXXX...............XXX.........XXX.........ooo...ooojjjjjj                                  ",
"                          oooXXX...............XXX.........XXX.........ooo...ooojjjjjj                                  ",
"                          oooXXX...............XXX.........XXX.........ooo...ooojjjjjj                                  ",
"                          oooXXX...............XXX............XXX......ooo...ooo&&&***                                  ",
"                          oooXXX...............XXX............XXX......ooo...ooo&&&***                                  ",
"                          oooXXX...............XXX............XXX......ooo...ooo&&&***                                  ",
"                          XXXXXX......XXX......XXX...............XXXooo...ooo***&&&jjj                                  ",
"                          XXXXXX......XXX......XXX...............XXXooo...ooo***&&&jjj                                  ",
"                          XXXXXX......XXX......XXX...............XXXooo...ooo***&&&jjj                                  ",
"                          XXXXXXXXXooo.........XXX............ooojjj***jjjjjjjjj***                                     ",
"                          XXXXXXXXXooo.........XXX............ooojjj***jjjjjjjjj***                                     ",
"                          XXXXXXXXXooo.........XXX............ooojjj***jjjjjjjjj***                                     ",
"                          oooXXXjjjXXX............jjjjjjjjjjjj***&&&$$$***jjj&&&jjj                                     ",
"                          oooXXXjjjXXX............jjjjjjjjjjjj***&&&$$$***jjj&&&jjj                                     ",
"                          oooXXXjjjXXX............jjjjjjjjjjjj***&&&$$$***jjj&&&jjj                                     ",
"                          ooojjj   XXX............XXX$$$$$$$$$$$$$$$&&&jjj&&&jjj                                        ",
"                          ooojjj   XXX............XXX$$$$$$$$$$$$$$$&&&jjj&&&jjj                                        ",
"                          ooojjj   XXX............XXX$$$$$$$$$$$$$$$&&&jjj&&&jjj                                        ",
"                          ooojjj   XXX.........ooojjj***&&&$$$&&&***jjj***jjj                                           ",
"                          ooojjj   XXX.........ooojjj***&&&$$$&&&***jjj***jjj                                           ",
"                          ooojjj   XXX.........ooojjj***&&&$$$&&&***jjj***jjj                                           ",
"                          jjj      oooXXX...XXXjjj***jjjjjjjjjjjj***&&&jjj                                              ",
"                          jjj      oooXXX...XXXjjj***jjjjjjjjjjjj***&&&jjj                                              ",
"                          jjj      oooXXX...XXXjjj***jjjjjjjjjjjj***&&&jjj                                              ",
"                          jjj      oooXXXXXXooojjj$$$&&&XXXooo...$$$$$$&&&jjj                                           ",
"                          jjj      oooXXXXXXooojjj$$$&&&XXXooo...$$$$$$&&&jjj                                           ",
"                          jjj      oooXXXXXXooojjj$$$&&&XXXooo...$$$$$$&&&jjj                                           ",
"                                   jjjXXXXXXjjj$$$&&&XXXXXXXXX...$$$$$$&&&jjj                                           ",
"                                   jjjXXXXXXjjj$$$&&&XXXXXXXXX...$$$$$$&&&jjj                                           ",
"                                   jjjXXXXXXjjj$$$&&&XXXXXXXXX...$$$$$$&&&jjj                                           ",
"                                      oooXXX$$$&&&***jjjOOO+++ooo...$$$&&&jjj                                           ",
"                                      oooXXX$$$&&&***jjjOOO+++ooo...$$$&&&jjj                                           ",
"                                      oooXXX$$$&&&***jjjOOO+++ooo...$$$&&&jjj                                           ",
"                                      jjjXXX&&&$$$OOO@@@OOOOOOooo...XXXooo                                              ",
"                                      jjjXXX&&&$$$OOO@@@OOOOOOooo...XXXooo                                              ",
"                                      jjjXXX&&&$$$OOO@@@OOOOOOooo...XXXooo                                              ",
"                                         jjjjjj***@@@OOOOOOOOOXXX...jjjjjj                                              ",
"                                         jjjjjj***@@@OOOOOOOOOXXX...jjjjjj                                              ",
"                                         jjjjjj***@@@OOOOOOOOOXXX...jjjjjj                                              ",
"                                            jjjjjj+++OOOOOO@@@...jjjooojjj                                              ",
"                                            jjjjjj+++OOOOOO@@@...jjjooojjj                                              ",
"                                            jjjjjj+++OOOOOO@@@...jjjooojjj                                              ",
"                                                  jjj@@@OOOjjj...jjjooo                                                 ",
"                                                  jjj@@@OOOjjj...jjjooo                                                 ",
"                                                  jjj@@@OOOjjj...jjjooo                                                 ",
"                                                     jjjjjj...XXXjjjooo                                                 ",
"                                                     jjjjjj...XXXjjjooo                                                 ",
"                                                     jjjjjj...XXXjjjooo                                                 ",
"                                                     jjjooo...jjjoooooo                                                 ",
"                                                     jjjooo...jjjoooooo                                                 ",
"                                                     jjjooo...jjjoooooo                                                 ",
"                                                  jjjOOOooo...jjjjjjjjjjjjjjj                                           ",
"                                                  jjjOOOooo...jjjjjjjjjjjjjjj                                           ",
"                                                  jjjOOOooo...jjjjjjjjjjjjjjj                                           ",
"                                                  jjjOOOOOO++++++jjj++++++jjj                                           ",
"                                                  jjjOOOOOO++++++jjj++++++jjj                                           ",
"                                                  jjjOOOOOO++++++jjj++++++jjj                                           ",
"                                                  jjj+++OOO+++jjj++++++jjj                                              ",
"                                                  jjj+++OOO+++jjj++++++jjj                                              ",
"                                                  jjj+++OOO+++jjj++++++jjj                                              ",
"                                               jjj%%%%%%@@@jjj######@@@+++######                                        ",
"                                               jjj%%%%%%@@@jjj######@@@+++######                                        ",
"                                               jjj%%%%%%@@@jjj######@@@+++######                                        ",
"                                            jjjOOOOOOOOO%%%jjj###++++++%%%%%%%%%%%%###                                  ",
"                                            jjjOOOOOOOOO%%%jjj###++++++%%%%%%%%%%%%###                                  ",
"                                            jjjOOOOOOOOO%%%jjj###++++++%%%%%%%%%%%%###                                  ",
"                                         jjj###%%%%%%%%%+++jjj###++++++%%%%%%%%%%%%%%%###                               ",
"                                         jjj###%%%%%%%%%+++jjj###++++++%%%%%%%%%%%%%%%###                               ",
"                                         jjj###%%%%%%%%%+++jjj###++++++%%%%%%%%%%%%%%%###                               ",
"                                         jjj%%%%%%%%%%%%###jjj@@@@@@@@@+++++++++++++++@@@                               ",
"                                         jjj%%%%%%%%%%%%###jjj@@@@@@@@@+++++++++++++++@@@                               ",
"                                         jjj%%%%%%%%%%%%###jjj@@@@@@@@@+++++++++++++++@@@                               ",
"                                         jjj+++OOOOOOOOO+++jjjjjjjjjjjjjjjjjjjjjjjjjjjjjj                               ",
"                                         jjj+++OOOOOOOOO+++jjjjjjjjjjjjjjjjjjjjjjjjjjjjjj                               ",
"                                         jjj+++OOOOOOOOO+++jjjjjjjjjjjjjjjjjjjjjjjjjjjjjj                               ",
"                                            jjjjjjjjjjjjjjj                                                             ",
"                                            jjjjjjjjjjjjjjj                                                             ",
"                                            jjjjjjjjjjjjjjj                                                             ",
"                                                                                                                        ",
"                                                                                                                        ",
"                                                                                                                        ",
"                                                                                                                        ",
"                                                                                                                        ",
"                                                                                                                        ",
"                                                                                                                        ",
"                                                                                                                        "
};
