/* XPM */
static char *fa8735d6bb3c4fc6d987d478c8a3fa61lXuGXBQeQc1q2GGg[] = {
/* columns rows colors chars-per-pixel */
"120 120 45 1 ",
"  c None",
". c #0040E8",
"X c #002098",
"o c #000060",
"O c #F8F8F8",
"+ c gray69",
"@ c gray44",
"# c #A80001",
"$ c #F8F898",
"% c #F82020",
"& c #F8A850",
"* c #985010",
"= c #F8D801",
"- c #20A0F8",
"; c #009800",
": c #B8E8F8",
"> c #0098F8",
", c #70D8F8",
"< c #30C8F8",
"1 c #F8D800",
"2 c #0050D0",
"3 c #0088C0",
"4 c #90F8F8",
"5 c #78E0F8",
"6 c #00B8D8",
"7 c #008800",
"8 c #0050F8",
"9 c #006000",
"0 c black",
"q c #00D800",
"w c #78E878",
"e c #00B000",
"r c #00D8E8",
"t c #18E8F8",
"y c #0068F8",
"u c #50F8F8",
"i c #00F0F8",
"p c #98F8F8",
"a c #0090F8",
"s c #D8F8F8",
"d c #70F8F8",
"f c #0080F8",
"g c #0078D8",
"h c #00B8F8",
"j c #101010",
/* pixels */
"                                                                                                                        ",
"                                                                                                                        ",
"                                                                                                                        ",
"                                                                                                                        ",
"                                                                                                                        ",
"                                                                                                                        ",
"                                                                                                                        ",
"                                            oooooo                                                                      ",
"                                            oooooo                                                                      ",
"                                            oooooo                                                                      ",
"                                            ooo...XXX         XXXXXXXXXXXXXXXoooooo                                     ",
"                                            ooo...XXX         XXXXXXXXXXXXXXXoooooo                                     ",
"                                            ooo...XXX         XXXXXXXXXXXXXXXoooooo                                     ",
"                                      @@@@@@ooo...XXXoooXXXXXX.....................XXXooo                               ",
"                                      @@@@@@ooo...XXXoooXXXXXX.....................XXXooo                               ",
"                                      @@@@@@ooo...XXXoooXXXXXX.....................XXXooo                               ",
"                                   @@@OOOOOOooo......XXX...............XXXooo.........XXXooo                            ",
"                                   @@@OOOOOOooo......XXX...............XXXooo.........XXXooo                            ",
"                                   @@@OOOOOOooo......XXX...............XXXooo.........XXXooo                            ",
"                                jjjOOO@@@jjjooo...XXX...............XXX...ooo......XXXXXXXXXooo                         ",
"                                jjjOOO@@@jjjooo...XXX...............XXX...ooo......XXXXXXXXXooo                         ",
"                                jjjOOO@@@jjjooo...XXX...............XXX...ooo......XXXXXXXXXooo                         ",
"                                jjjOOOOOOjjjoooXXX...............XXX...&&&oooXXXXXXoooooooooXXXooo                      ",
"                                jjjOOOOOOjjjoooXXX...............XXX...&&&oooXXXXXXoooooooooXXXooo                      ",
"                                jjjOOOOOOjjjoooXXX...............XXX...&&&oooXXXXXXoooooooooXXXooo                      ",
"                                jjj+++OOOjjjXXX...............XXXXXX$$$$$$ooo......XXXooo      ooo                      ",
"                                jjj+++OOOjjjXXX...............XXXXXX$$$$$$ooo......XXXooo      ooo                      ",
"                                jjj+++OOOjjjXXX...............XXXXXX$$$$$$ooo......XXXooo      ooo                      ",
"                                jjj@@@@@@ooo...ooo.........XXX............ooo.........XXXooo                            ",
"                                jjj@@@@@@ooo...ooo.........XXX............ooo.........XXXooo                            ",
"                                jjj@@@@@@ooo...ooo.........XXX............ooo.........XXXooo                            ",
"                                   jjjOOOooo...ooo......XXX...XXXXXXXXX..................ooo                            ",
"                                   jjjOOOooo...ooo......XXX...XXXXXXXXX..................ooo                            ",
"                                   jjjOOOooo...ooo......XXX...XXXXXXXXX..................ooo                            ",
"                                   jjjjjjooo...ooo.........XXX.........XXX...............XXXooo                         ",
"                                   jjjjjjooo...ooo.........XXX.........XXX...............XXXooo                         ",
"                                   jjjjjjooo...ooo.........XXX.........XXX...............XXXooo                         ",
"                                   ***&&&ooo...ooo......XXX............XXX...............XXXooo                         ",
"                                   ***&&&ooo...ooo......XXX............XXX...............XXXooo                         ",
"                                   ***&&&ooo...ooo......XXX............XXX...............XXXooo                         ",
"                                   jjj&&&***ooo...oooXXX...............XXX......XXX......XXXXXX                         ",
"                                   jjj&&&***ooo...oooXXX...............XXX......XXX......XXXXXX                         ",
"                                   jjj&&&***ooo...oooXXX...............XXX......XXX......XXXXXX                         ",
"                                      ***jjjjjjjjj***jjjooo............XXX.........oooXXXXXXXXX                         ",
"                                      ***jjjjjjjjj***jjjooo............XXX.........oooXXXXXXXXX                         ",
"                                      ***jjjjjjjjj***jjjooo............XXX.........oooXXXXXXXXX                         ",
"                                      jjj&&&jjj***$$$&&&***jjjjjjjjjjjj............XXXjjjXXXooo                         ",
"                                      jjj&&&jjj***$$$&&&***jjjjjjjjjjjj............XXXjjjXXXooo                         ",
"                                      jjj&&&jjj***$$$&&&***jjjjjjjjjjjj............XXXjjjXXXooo                         ",
"                                         jjj&&&jjj&&&$$$$$$$$$$$$$$$XXX............XXX   jjjooo                         ",
"                                         jjj&&&jjj&&&$$$$$$$$$$$$$$$XXX............XXX   jjjooo                         ",
"                                         jjj&&&jjj&&&$$$$$$$$$$$$$$$XXX............XXX   jjjooo                         ",
"                                            jjj***jjj***&&&$$$&&&***jjjooo.........XXX   jjjooo                         ",
"                                            jjj***jjj***&&&$$$&&&***jjjooo.........XXX   jjjooo                         ",
"                                            jjj***jjj***&&&$$$&&&***jjjooo.........XXX   jjjooo                         ",
"                                               jjj&&&***jjjjjjjjjjjj***jjjXXX...XXXooo      jjj                         ",
"                                               jjj&&&***jjjjjjjjjjjj***jjjXXX...XXXooo      jjj                         ",
"                                               jjj&&&***jjjjjjjjjjjj***jjjXXX...XXXooo      jjj                         ",
"                                            jjj&&&$$$$$$...oooXXX&&&$$$jjjoooXXXXXXooo      jjj                         ",
"                                            jjj&&&$$$$$$...oooXXX&&&$$$jjjoooXXXXXXooo      jjj                         ",
"                                            jjj&&&$$$$$$...oooXXX&&&$$$jjjoooXXXXXXooo      jjj                         ",
"                                            jjj&&&$$$$$$...XXXXXXXXX&&&$$$jjjXXXXXXjjj                                  ",
"                                            jjj&&&$$$$$$...XXXXXXXXX&&&$$$jjjXXXXXXjjj                                  ",
"                                            jjj&&&$$$$$$...XXXXXXXXX&&&$$$jjjXXXXXXjjj                                  ",
"                                            jjj&&&$$$...ooo+++OOOjjj***&&&$$$XXXooo                                     ",
"                                            jjj&&&$$$...ooo+++OOOjjj***&&&$$$XXXooo                                     ",
"                                            jjj&&&$$$...ooo+++OOOjjj***&&&$$$XXXooo                                     ",
"                                               oooXXX...oooOOOOOO@@@OOO$$$&&&XXXjjj                                     ",
"                                               oooXXX...oooOOOOOO@@@OOO$$$&&&XXXjjj                                     ",
"                                               oooXXX...oooOOOOOO@@@OOO$$$&&&XXXjjj                                     ",
"                                               jjjjjj...XXXOOOOOOOOO@@@***jjjjjj                                        ",
"                                               jjjjjj...XXXOOOOOOOOO@@@***jjjjjj                                        ",
"                                               jjjjjj...XXXOOOOOOOOO@@@***jjjjjj                                        ",
"                                               jjjooojjj...@@@OOOOOO+++jjjjjj                                           ",
"                                               jjjooojjj...@@@OOOOOO+++jjjjjj                                           ",
"                                               jjjooojjj...@@@OOOOOO+++jjjjjj                                           ",
"                                                  ooojjj...jjjOOO@@@jjj                                                 ",
"                                                  ooojjj...jjjOOO@@@jjj                                                 ",
"                                                  ooojjj...jjjOOO@@@jjj                                                 ",
"                                                  ooojjjXXX...jjjjjj                                                    ",
"                                                  ooojjjXXX...jjjjjj                                                    ",
"                                                  ooojjjXXX...jjjjjj                                                    ",
"                                                  oooooojjj...ooojjj                                                    ",
"                                                  oooooojjj...ooojjj                                                    ",
"                                                  oooooojjj...ooojjj                                                    ",
"                                            jjjjjjjjjjjjjjj...oooOOOjjj                                                 ",
"                                            jjjjjjjjjjjjjjj...oooOOOjjj                                                 ",
"                                            jjjjjjjjjjjjjjj...oooOOOjjj                                                 ",
"                                            jjj++++++jjj++++++OOOOOOjjj                                                 ",
"                                            jjj++++++jjj++++++OOOOOOjjj                                                 ",
"                                            jjj++++++jjj++++++OOOOOOjjj                                                 ",
"                                               jjj++++++jjj+++OOO+++jjj                                                 ",
"                                               jjj++++++jjj+++OOO+++jjj                                                 ",
"                                               jjj++++++jjj+++OOO+++jjj                                                 ",
"                                         ######+++@@@######jjj@@@%%%%%%jjj                                              ",
"                                         ######+++@@@######jjj@@@%%%%%%jjj                                              ",
"                                         ######+++@@@######jjj@@@%%%%%%jjj                                              ",
"                                   ###%%%%%%%%%%%%++++++###jjj%%%OOOOOOOOOjjj                                           ",
"                                   ###%%%%%%%%%%%%++++++###jjj%%%OOOOOOOOOjjj                                           ",
"                                   ###%%%%%%%%%%%%++++++###jjj%%%OOOOOOOOOjjj                                           ",
"                                ###%%%%%%%%%%%%%%%++++++###jjj+++%%%%%%%%%###jjj                                        ",
"                                ###%%%%%%%%%%%%%%%++++++###jjj+++%%%%%%%%%###jjj                                        ",
"                                ###%%%%%%%%%%%%%%%++++++###jjj+++%%%%%%%%%###jjj                                        ",
"                                @@@+++++++++++++++@@@@@@@@@jjj###%%%%%%%%%%%%jjj                                        ",
"                                @@@+++++++++++++++@@@@@@@@@jjj###%%%%%%%%%%%%jjj                                        ",
"                                @@@+++++++++++++++@@@@@@@@@jjj###%%%%%%%%%%%%jjj                                        ",
"                                jjjjjjjjjjjjjjjjjjjjjjjjjjjjjj+++OOOOOOOOO+++jjj                                        ",
"                                jjjjjjjjjjjjjjjjjjjjjjjjjjjjjj+++OOOOOOOOO+++jjj                                        ",
"                                jjjjjjjjjjjjjjjjjjjjjjjjjjjjjj+++OOOOOOOOO+++jjj                                        ",
"                                                              jjjjjjjjjjjjjjj                                           ",
"                                                              jjjjjjjjjjjjjjj                                           ",
"                                                              jjjjjjjjjjjjjjj                                           ",
"                                                                                                                        ",
"                                                                                                                        ",
"                                                                                                                        ",
"                                                                                                                        ",
"                                                                                                                        ",
"                                                                                                                        ",
"                                                                                                                        ",
"                                                                                                                        "
};
