/* XPM */
static char *_5a3343d5e234f5885238011225b1768BdZMwlhiJgShQIVS[] = {
/* columns rows colors chars-per-pixel */
"120 120 45 1 ",
"  c None",
". c #0040E8",
"X c #002098",
"o c #000060",
"O c #F8F8F8",
"+ c gray69",
"@ c gray44",
"# c #A80001",
"$ c #F8F898",
"% c #F82020",
"& c #F8A850",
"* c #985010",
"= c #F8D801",
"- c #20A0F8",
"; c #009800",
": c #B8E8F8",
"> c #0098F8",
", c #70D8F8",
"< c #30C8F8",
"1 c #F8D800",
"2 c #0050D0",
"3 c #0088C0",
"4 c #90F8F8",
"5 c #78E0F8",
"6 c #00B8D8",
"7 c #008800",
"8 c #0050F8",
"9 c #006000",
"0 c black",
"q c #00D800",
"w c #78E878",
"e c #00B000",
"r c #00D8E8",
"t c #18E8F8",
"y c #0068F8",
"u c #50F8F8",
"i c #00F0F8",
"p c #98F8F8",
"a c #0090F8",
"s c #D8F8F8",
"d c #70F8F8",
"f c #0080F8",
"g c #0078D8",
"h c #00B8F8",
"j c #101010",
/* pixels */
"                                                                                                                        ",
"                                                                                                                        ",
"                                                                                                                        ",
"                                                                                                                        ",
"                                                                                                                        ",
"                                                                                                                        ",
"                                                                                                                        ",
"                                                                                                                        ",
"                                               XXXXXXXXXXXXXXX                                                          ",
"                                               XXXXXXXXXXXXXXX                                                          ",
"                                               XXXXXXXXXXXXXXX                                                          ",
"                                         XXXXXX...............XXXooo                                                    ",
"                                         XXXXXX...............XXXooo                                                    ",
"                                         XXXXXX...............XXXooo                                                    ",
"                                      XXX.....................ooo...ooo                                                 ",
"                                      XXX.....................ooo...ooo                                                 ",
"                                      XXX.....................ooo...ooo                                                 ",
"                                   XXX.........XXXXXXXXX...ooo...$$$oooXXX            XXXooo                            ",
"                                   XXX.........XXXXXXXXX...ooo...$$$oooXXX            XXXooo                            ",
"                                   XXX.........XXXXXXXXX...ooo...$$$oooXXX            XXXooo                            ",
"                                ooooooooooooXXX.........XXX...$$$$$$XXX...ooo   XXXXXX...ooo                            ",
"                                ooooooooooooXXX.........XXX...$$$$$$XXX...ooo   XXXXXX...ooo                            ",
"                                ooooooooooooXXX.........XXX...$$$$$$XXX...ooo   XXXXXX...ooo                            ",
"                                      ooo..................XXX......XXX......XXX......XXXooo                            ",
"                                      ooo..................XXX......XXX......XXX......XXXooo                            ",
"                                      ooo..................XXX......XXX......XXX......XXXooo                            ",
"                                   ooo..................XXX...XXXXXX...XXX......XXX...ooo                               ",
"                                   ooo..................XXX...XXXXXX...XXX......XXX...ooo                               ",
"                                   ooo..................XXX...XXXXXX...XXX......XXX...ooo                               ",
"                                oooXXX.....................XXXOOOOOOXXX...XXX...XXXooo                                  ",
"                                oooXXX.....................XXXOOOOOOXXX...XXX...XXXooo                                  ",
"                                oooXXX.....................XXXOOOOOOXXX...XXX...XXXooo                                  ",
"                                oooXXX......ooooooXXX......OOOOOOOOOXXX...XXX......ooo                                  ",
"                                oooXXX......ooooooXXX......OOOOOOOOOXXX...XXX......ooo                                  ",
"                                oooXXX......ooooooXXX......OOOOOOOOOXXX...XXX......ooo                                  ",
"                             oooXXXXXXooooooXXX............OOOOOOOOOOOOXXX.........ooo                                  ",
"                             oooXXXXXXooooooXXX............OOOOOOOOOOOOXXX.........ooo                                  ",
"                             oooXXXXXXooooooXXX............OOOOOOOOOOOOXXX.........ooo                                  ",
"                             oooXXXooooooXXX...............OOOOOO;;;OOOXXX.........ooo                                  ",
"                             oooXXXooooooXXX...............OOOOOO;;;OOOXXX.........ooo                                  ",
"                             oooXXXooooooXXX...............OOOOOO;;;OOOXXX.........ooo                                  ",
"                             oooooo   ooo...............******OOOjjjOOOOOOXXX...XXX                                     ",
"                             oooooo   ooo...............******OOOjjjOOOOOOXXX...XXX                                     ",
"                             oooooo   ooo...............******OOOjjjOOOOOOXXX...XXX                                     ",
"                             ooo   oooXXXXXX.........***$$$&&&&&&;;;OOOOOOoooooo                                        ",
"                             ooo   oooXXXXXX.........***$$$&&&&&&;;;OOOOOOoooooo                                        ",
"                             ooo   oooXXXXXX.........***$$$&&&&&&;;;OOOOOOoooooo                                        ",
"                             ooo   oooXXXXXXXXXoooooo***&&&$$$$$$*********&&&jjjjjj                                     ",
"                             ooo   oooXXXXXXXXXoooooo***&&&$$$$$$*********&&&jjjjjj                                     ",
"                             ooo   oooXXXXXXXXXoooooo***&&&$$$$$$*********&&&jjjjjj                                     ",
"                                   oooXXXXXXooojjjjjjjjj***&&&$$$$$$$$$$$$***                                           ",
"                                   oooXXXXXXooojjjjjjjjj***&&&$$$$$$$$$$$$***                                           ",
"                                   oooXXXXXXooojjjjjjjjj***&&&$$$$$$$$$$$$***                                           ",
"                                   oooXXXooojjj      oooooojjjjjjjjj******                                              ",
"                                   oooXXXooojjj      oooooojjjjjjjjj******                                              ",
"                                   oooXXXooojjj      oooooojjjjjjjjj******                                              ",
"                                   oooooojjj   ******$$$$$$XXX&&&***                                                    ",
"                                   oooooojjj   ******$$$$$$XXX&&&***                                                    ",
"                                   oooooojjj   ******$$$$$$XXX&&&***                                                    ",
"                                      jjj   ***$$$$$$jjjXXX...$$$&&&jjj                                                 ",
"                                      jjj   ***$$$$$$jjjXXX...$$$&&&jjj                                                 ",
"                                      jjj   ***$$$$$$jjjXXX...$$$&&&jjj                                                 ",
"                                      jjjjjj$$$&&&jjjXXXooo...$$$$$$jjj                                                 ",
"                                      jjjjjj$$$&&&jjjXXXooo...$$$$$$jjj                                                 ",
"                                      jjjjjj$$$&&&jjjXXXooo...$$$$$$jjj                                                 ",
"                                         jjj$$$@@@jjjooojjj......&&&jjj***jjjjjj                                        ",
"                                         jjj$$$@@@jjjooojjj......&&&jjj***jjjjjj                                        ",
"                                         jjj$$$@@@jjjooojjj......&&&jjj***jjjjjj                                        ",
"                                      jjj@@@@@@OOOOOOjjjjjjXXX...XXXjjjjjjOOO@@@@@@                                     ",
"                                      jjj@@@@@@OOOOOOjjjjjjXXX...XXXjjjjjjOOO@@@@@@                                     ",
"                                      jjj@@@@@@OOOOOOjjjjjjXXX...XXXjjjjjjOOO@@@@@@                                     ",
"                                      jjj+++OOOOOOOOOOOOjjj...XXXooo+++@@@OOO@@@OOOjjj                                  ",
"                                      jjj+++OOOOOOOOOOOOjjj...XXXooo+++@@@OOO@@@OOOjjj                                  ",
"                                      jjj+++OOOOOOOOOOOOjjj...XXXooo+++@@@OOO@@@OOOjjj                                  ",
"                                      jjjOOOOOOOOOOOOOOOooo...jjjooo+++@@@jjjOOO+++jjj                                  ",
"                                      jjjOOOOOOOOOOOOOOOooo...jjjooo+++@@@jjjOOO+++jjj                                  ",
"                                      jjjOOOOOOOOOOOOOOOooo...jjjooo+++@@@jjjOOO+++jjj                                  ",
"                                      jjj+++OOOOOO+++jjjXXX...jjjooojjjjjj+++OOOjjj                                     ",
"                                      jjj+++OOOOOO+++jjjXXX...jjjooojjjjjj+++OOOjjj                                     ",
"                                      jjj+++OOOOOO+++jjjXXX...jjjooojjjjjj+++OOOjjj                                     ",
"                                         jjj+++@@@jjjjjj...ooojjjoooooojjjjjjjjj                                        ",
"                                         jjj+++@@@jjjjjj...ooojjjoooooojjjjjjjjj                                        ",
"                                         jjj+++@@@jjjjjj...ooojjjoooooojjjjjjjjj                                        ",
"                                            jjjjjj   jjj...jjjjjjoooooo                                                 ",
"                                            jjjjjj   jjj...jjjjjjoooooo                                                 ",
"                                            jjjjjj   jjj...jjjjjjoooooo                                                 ",
"                                               jjjjjjXXX...jjjjjjjjjjjjjjj                                              ",
"                                               jjjjjjXXX...jjjjjjjjjjjjjjj                                              ",
"                                               jjjjjjXXX...jjjjjjjjjjjjjjj                                              ",
"                                               jjjOOOjjjjjjjjj@@@++++++jjj                                              ",
"                                               jjjOOOjjjjjjjjj@@@++++++jjj                                              ",
"                                               jjjOOOjjjjjjjjj@@@++++++jjj                                              ",
"                                               jjjOOOOOO++++++jjj+++jjj                                                 ",
"                                               jjjOOOOOO++++++jjj+++jjj                                                 ",
"                                               jjjOOOOOO++++++jjj+++jjj                                                 ",
"                                            jjj######++++++jjj######++++++######                                        ",
"                                            jjj######++++++jjj######++++++######                                        ",
"                                            jjj######++++++jjj######++++++######                                        ",
"                                         jjjOOOOOOOOO%%%jjj###%%%++++++%%%%%%%%%######                                  ",
"                                         jjjOOOOOOOOO%%%jjj###%%%++++++%%%%%%%%%######                                  ",
"                                         jjjOOOOOOOOO%%%jjj###%%%++++++%%%%%%%%%######                                  ",
"                                      jjj%%%%%%%%%%%%+++jjj######++++++%%%%%%%%%%%%%%%###                               ",
"                                      jjj%%%%%%%%%%%%+++jjj######++++++%%%%%%%%%%%%%%%###                               ",
"                                      jjj%%%%%%%%%%%%+++jjj######++++++%%%%%%%%%%%%%%%###                               ",
"                                      jjj%%%%%%%%%%%%%%%jjj@@@@@@@@@@@@+++++++++++++++@@@                               ",
"                                      jjj%%%%%%%%%%%%%%%jjj@@@@@@@@@@@@+++++++++++++++@@@                               ",
"                                      jjj%%%%%%%%%%%%%%%jjj@@@@@@@@@@@@+++++++++++++++@@@                               ",
"                                      jjj+++OOOOOOOOO+++jjjjjjjjjjjjjjjjjjjjjjjjjjjjjjjjj                               ",
"                                      jjj+++OOOOOOOOO+++jjjjjjjjjjjjjjjjjjjjjjjjjjjjjjjjj                               ",
"                                      jjj+++OOOOOOOOO+++jjjjjjjjjjjjjjjjjjjjjjjjjjjjjjjjj                               ",
"                                         jjjjjjjjjjjjjjj                                                                ",
"                                         jjjjjjjjjjjjjjj                                                                ",
"                                         jjjjjjjjjjjjjjj                                                                ",
"                                                                                                                        ",
"                                                                                                                        ",
"                                                                                                                        ",
"                                                                                                                        ",
"                                                                                                                        ",
"                                                                                                                        ",
"                                                                                                                        "
};
