/* XPM */
static char *_6fa6365033047b0bdda1171eb6863304PFVnLwjWIHd1xkh[] = {
/* columns rows colors chars-per-pixel */
"120 120 45 1 ",
"  c None",
". c #0040E8",
"X c #002098",
"o c #000060",
"O c #F8F8F8",
"+ c gray69",
"@ c gray44",
"# c #A80001",
"$ c #F8F898",
"% c #F82020",
"& c #F8A850",
"* c #985010",
"= c #F8D801",
"- c #20A0F8",
"; c #009800",
": c #B8E8F8",
"> c #0098F8",
", c #70D8F8",
"< c #30C8F8",
"1 c #F8D800",
"2 c #0050D0",
"3 c #0088C0",
"4 c #90F8F8",
"5 c #78E0F8",
"6 c #00B8D8",
"7 c #008800",
"8 c #0050F8",
"9 c #006000",
"0 c black",
"q c #00D800",
"w c #78E878",
"e c #00B000",
"r c #00D8E8",
"t c #18E8F8",
"y c #0068F8",
"u c #50F8F8",
"i c #00F0F8",
"p c #98F8F8",
"a c #0090F8",
"s c #D8F8F8",
"d c #70F8F8",
"f c #0080F8",
"g c #0078D8",
"h c #00B8F8",
"j c #101010",
/* pixels */
"                                                                                                                        ",
"                                                                                                                        ",
"                                                                                                                        ",
"                                                                                                                        ",
"                                                                                                                        ",
"                                                                                                                        ",
"                                                                                                                        ",
"                                                                                                                        ",
"                                                           XXXXXXXXXXXXXXX                                              ",
"                                                           XXXXXXXXXXXXXXX                                              ",
"                                                           XXXXXXXXXXXXXXX                                              ",
"                                                     oooXXX...............XXXXXX                                        ",
"                                                     oooXXX...............XXXXXX                                        ",
"                                                     oooXXX...............XXXXXX                                        ",
"                                                  ooo...ooo.....................XXX                                     ",
"                                                  ooo...ooo.....................XXX                                     ",
"                                                  ooo...ooo.....................XXX                                     ",
"                             oooXXX            XXXooo$$$...ooo...XXXXXXXXX.........XXX                                  ",
"                             oooXXX            XXXooo$$$...ooo...XXXXXXXXX.........XXX                                  ",
"                             oooXXX            XXXooo$$$...ooo...XXXXXXXXX.........XXX                                  ",
"                             ooo...XXXXXX   ooo...XXX$$$$$$...XXX.........XXXoooooooooooo                               ",
"                             ooo...XXXXXX   ooo...XXX$$$$$$...XXX.........XXXoooooooooooo                               ",
"                             ooo...XXXXXX   ooo...XXX$$$$$$...XXX.........XXXoooooooooooo                               ",
"                             oooXXX......XXX......XXX......XXX..................ooo                                     ",
"                             oooXXX......XXX......XXX......XXX..................ooo                                     ",
"                             oooXXX......XXX......XXX......XXX..................ooo                                     ",
"                                ooo...XXX......XXX...XXXXXX...XXX..................ooo                                  ",
"                                ooo...XXX......XXX...XXXXXX...XXX..................ooo                                  ",
"                                ooo...XXX......XXX...XXXXXX...XXX..................ooo                                  ",
"                                   oooXXX...XXX...XXXOOOOOOXXX.....................XXXooo                               ",
"                                   oooXXX...XXX...XXXOOOOOOXXX.....................XXXooo                               ",
"                                   oooXXX...XXX...XXXOOOOOOXXX.....................XXXooo                               ",
"                                   ooo......XXX...XXXOOOOOOOOO......XXXoooooo......XXXooo                               ",
"                                   ooo......XXX...XXXOOOOOOOOO......XXXoooooo......XXXooo                               ",
"                                   ooo......XXX...XXXOOOOOOOOO......XXXoooooo......XXXooo                               ",
"                                   ooo.........XXXOOOOOOOOOOOO............XXXooooooXXXXXXooo                            ",
"                                   ooo.........XXXOOOOOOOOOOOO............XXXooooooXXXXXXooo                            ",
"                                   ooo.........XXXOOOOOOOOOOOO............XXXooooooXXXXXXooo                            ",
"                                   ooo.........XXXOOO;;;OOOOOO...............XXXooooooXXXooo                            ",
"                                   ooo.........XXXOOO;;;OOOOOO...............XXXooooooXXXooo                            ",
"                                   ooo.........XXXOOO;;;OOOOOO...............XXXooooooXXXooo                            ",
"                                      XXX...XXXOOOOOOjjjOOO******...............ooo   oooooo                            ",
"                                      XXX...XXXOOOOOOjjjOOO******...............ooo   oooooo                            ",
"                                      XXX...XXXOOOOOOjjjOOO******...............ooo   oooooo                            ",
"                                         ooooooOOOOOO;;;&&&&&&$$$***.........XXXXXXooo   ooo                            ",
"                                         ooooooOOOOOO;;;&&&&&&$$$***.........XXXXXXooo   ooo                            ",
"                                         ooooooOOOOOO;;;&&&&&&$$$***.........XXXXXXooo   ooo                            ",
"                                      jjjjjj&&&*********$$$$$$&&&***ooooooXXXXXXXXXooo   ooo                            ",
"                                      jjjjjj&&&*********$$$$$$&&&***ooooooXXXXXXXXXooo   ooo                            ",
"                                      jjjjjj&&&*********$$$$$$&&&***ooooooXXXXXXXXXooo   ooo                            ",
"                                            ***$$$$$$$$$$$$&&&***jjjjjjjjjoooXXXXXXooo                                  ",
"                                            ***$$$$$$$$$$$$&&&***jjjjjjjjjoooXXXXXXooo                                  ",
"                                            ***$$$$$$$$$$$$&&&***jjjjjjjjjoooXXXXXXooo                                  ",
"                                               ******jjjjjjjjjoooooo      jjjoooXXXooo                                  ",
"                                               ******jjjjjjjjjoooooo      jjjoooXXXooo                                  ",
"                                               ******jjjjjjjjjoooooo      jjjoooXXXooo                                  ",
"                                                     ***&&&XXX$$$$$$******   jjjoooooo                                  ",
"                                                     ***&&&XXX$$$$$$******   jjjoooooo                                  ",
"                                                     ***&&&XXX$$$$$$******   jjjoooooo                                  ",
"                                                  jjj&&&$$$...XXXjjj$$$$$$***   jjj                                     ",
"                                                  jjj&&&$$$...XXXjjj$$$$$$***   jjj                                     ",
"                                                  jjj&&&$$$...XXXjjj$$$$$$***   jjj                                     ",
"                                                  jjj$$$$$$...oooXXXjjj&&&$$$jjjjjj                                     ",
"                                                  jjj$$$$$$...oooXXXjjj&&&$$$jjjjjj                                     ",
"                                                  jjj$$$$$$...oooXXXjjj&&&$$$jjjjjj                                     ",
"                                         jjjjjj***jjj&&&......jjjooojjj@@@$$$jjj                                        ",
"                                         jjjjjj***jjj&&&......jjjooojjj@@@$$$jjj                                        ",
"                                         jjjjjj***jjj&&&......jjjooojjj@@@$$$jjj                                        ",
"                                      @@@@@@OOOjjjjjjXXX...XXXjjjjjjOOOOOO@@@@@@jjj                                     ",
"                                      @@@@@@OOOjjjjjjXXX...XXXjjjjjjOOOOOO@@@@@@jjj                                     ",
"                                      @@@@@@OOOjjjjjjXXX...XXXjjjjjjOOOOOO@@@@@@jjj                                     ",
"                                   jjjOOO@@@OOO@@@+++oooXXX...jjjOOOOOOOOOOOO+++jjj                                     ",
"                                   jjjOOO@@@OOO@@@+++oooXXX...jjjOOOOOOOOOOOO+++jjj                                     ",
"                                   jjjOOO@@@OOO@@@+++oooXXX...jjjOOOOOOOOOOOO+++jjj                                     ",
"                                   jjj+++OOOjjj@@@+++ooojjj...oooOOOOOOOOOOOOOOOjjj                                     ",
"                                   jjj+++OOOjjj@@@+++ooojjj...oooOOOOOOOOOOOOOOOjjj                                     ",
"                                   jjj+++OOOjjj@@@+++ooojjj...oooOOOOOOOOOOOOOOOjjj                                     ",
"                                      jjjOOO+++jjjjjjooojjj...XXXjjj+++OOOOOO+++jjj                                     ",
"                                      jjjOOO+++jjjjjjooojjj...XXXjjj+++OOOOOO+++jjj                                     ",
"                                      jjjOOO+++jjjjjjooojjj...XXXjjj+++OOOOOO+++jjj                                     ",
"                                         jjjjjjjjjoooooojjjooo...jjjjjj@@@+++jjj                                        ",
"                                         jjjjjjjjjoooooojjjooo...jjjjjj@@@+++jjj                                        ",
"                                         jjjjjjjjjoooooojjjooo...jjjjjj@@@+++jjj                                        ",
"                                                  oooooojjjjjj...jjj   jjjjjj                                           ",
"                                                  oooooojjjjjj...jjj   jjjjjj                                           ",
"                                                  oooooojjjjjj...jjj   jjjjjj                                           ",
"                                               jjjjjjjjjjjjjjj...XXXjjjjjj                                              ",
"                                               jjjjjjjjjjjjjjj...XXXjjjjjj                                              ",
"                                               jjjjjjjjjjjjjjj...XXXjjjjjj                                              ",
"                                               jjj++++++@@@jjjjjjjjjOOOjjj                                              ",
"                                               jjj++++++@@@jjjjjjjjjOOOjjj                                              ",
"                                               jjj++++++@@@jjjjjjjjjOOOjjj                                              ",
"                                                  jjj+++jjj++++++OOOOOOjjj                                              ",
"                                                  jjj+++jjj++++++OOOOOOjjj                                              ",
"                                                  jjj+++jjj++++++OOOOOOjjj                                              ",
"                                         ######++++++######jjj++++++######jjj                                           ",
"                                         ######++++++######jjj++++++######jjj                                           ",
"                                         ######++++++######jjj++++++######jjj                                           ",
"                                   ######%%%%%%%%%++++++%%%###jjj%%%OOOOOOOOOjjj                                        ",
"                                   ######%%%%%%%%%++++++%%%###jjj%%%OOOOOOOOOjjj                                        ",
"                                   ######%%%%%%%%%++++++%%%###jjj%%%OOOOOOOOOjjj                                        ",
"                                ###%%%%%%%%%%%%%%%++++++######jjj+++%%%%%%%%%%%%jjj                                     ",
"                                ###%%%%%%%%%%%%%%%++++++######jjj+++%%%%%%%%%%%%jjj                                     ",
"                                ###%%%%%%%%%%%%%%%++++++######jjj+++%%%%%%%%%%%%jjj                                     ",
"                                @@@+++++++++++++++@@@@@@@@@@@@jjj%%%%%%%%%%%%%%%jjj                                     ",
"                                @@@+++++++++++++++@@@@@@@@@@@@jjj%%%%%%%%%%%%%%%jjj                                     ",
"                                @@@+++++++++++++++@@@@@@@@@@@@jjj%%%%%%%%%%%%%%%jjj                                     ",
"                                jjjjjjjjjjjjjjjjjjjjjjjjjjjjjjjjj+++OOOOOOOOO+++jjj                                     ",
"                                jjjjjjjjjjjjjjjjjjjjjjjjjjjjjjjjj+++OOOOOOOOO+++jjj                                     ",
"                                jjjjjjjjjjjjjjjjjjjjjjjjjjjjjjjjj+++OOOOOOOOO+++jjj                                     ",
"                                                                 jjjjjjjjjjjjjjj                                        ",
"                                                                 jjjjjjjjjjjjjjj                                        ",
"                                                                 jjjjjjjjjjjjjjj                                        ",
"                                                                                                                        ",
"                                                                                                                        ",
"                                                                                                                        ",
"                                                                                                                        ",
"                                                                                                                        ",
"                                                                                                                        ",
"                                                                                                                        "
};
