/* XPM */
static char *f11910eb7fe74cc3a1770e525807b97eZN2392pxpQI2kygM[] = {
/* columns rows colors chars-per-pixel */
"120 120 45 1 ",
"  c None",
". c #0040E8",
"X c #002098",
"o c #000060",
"O c #F8F8F8",
"+ c gray69",
"@ c gray44",
"# c #A80001",
"$ c #F8F898",
"% c #F82020",
"& c #F8A850",
"* c #985010",
"= c #F8D801",
"- c #20A0F8",
"; c #009800",
": c #B8E8F8",
"> c #0098F8",
", c #70D8F8",
"< c #30C8F8",
"1 c #F8D800",
"2 c #0050D0",
"3 c #0088C0",
"4 c #90F8F8",
"5 c #78E0F8",
"6 c #00B8D8",
"7 c #008800",
"8 c #0050F8",
"9 c #006000",
"0 c black",
"q c #00D800",
"w c #78E878",
"e c #00B000",
"r c #00D8E8",
"t c #18E8F8",
"y c #0068F8",
"u c #50F8F8",
"i c #00F0F8",
"p c #98F8F8",
"a c #0090F8",
"s c #D8F8F8",
"d c #70F8F8",
"f c #0080F8",
"g c #0078D8",
"h c #00B8F8",
"j c #101010",
/* pixels */
"                                                                                                                        ",
"                                                                                                                        ",
"                                                                                                                        ",
"                                 XXXXXXXXXXXXXXX                                                                        ",
"                                 XXXXXXXXXXXXXXX                                                                        ",
"                                 XXXXXXXXXXXXXXX                                                                        ",
"                     oooXXXXXXXXX...............XXXXXXXXX                                                               ",
"                     oooXXXXXXXXX...............XXXXXXXXX                                                               ",
"                     oooXXXXXXXXX...............XXXXXXXXX                                                               ",
"                        ooo..................XXXoooooo...XXXXXX                                                         ",
"                        ooo..................XXXoooooo...XXXXXX                                                         ",
"                        ooo..................XXXoooooo...XXXXXX                                                         ",
"                           jjj...............XXX$$$...ooo......XXXXXXXXX                                                ",
"                           jjj...............XXX$$$...ooo......XXXXXXXXX                                                ",
"                           jjj...............XXX$$$...ooo......XXXXXXXXX                                                ",
"                              jjjXXX.........XXX...$$$&&&XXX......XXX...XXXoooooo                                       ",
"                              jjjXXX.........XXX...$$$&&&XXX......XXX...XXXoooooo                                       ",
"                              jjjXXX.........XXX...$$$&&&XXX......XXX...XXXoooooo                                       ",
"                              jjjjjjoooXXXXXX...............XXX......XXX&&&&&&ooo                                       ",
"                              jjjjjjoooXXXXXX...............XXX......XXX&&&&&&ooo                                       ",
"                              jjjjjjoooXXXXXX...............XXX......XXX&&&&&&ooo                                       ",
"                           jjjXXX..................XXXXXX...............oooooo                                          ",
"                           jjjXXX..................XXXXXX...............oooooo                                          ",
"                           jjjXXX..................XXXXXX...............oooooo                                          ",
"                        ooo.....................XXXOOOOOOXXX............ooo                                             ",
"                        ooo.....................XXXOOOOOOXXX............ooo                                             ",
"                        ooo.....................XXXOOOOOOXXX............ooo                                             ",
"                     ooo........................OOOOOOOOOOOO...............ooo                                          ",
"                     ooo........................OOOOOOOOOOOO...............ooo                                          ",
"                     ooo........................OOOOOOOOOOOO...............ooo                                          ",
"                     XXX........................OOO;;;OOOOOOXXX.........OOOooo                                          ",
"                     XXX........................OOO;;;OOOOOOXXX.........OOOooo                                          ",
"                     XXX........................OOO;;;OOOOOOXXX.........OOOooo                                          ",
"                  ooo...........................OOOjjjOOOOOOXXX......XXXOOOooo                                          ",
"                  ooo...........................OOOjjjOOOOOOXXX......XXXOOOooo                                          ",
"                  ooo...........................OOOjjjOOOOOOXXX......XXXOOOooo                                          ",
"                  ooo............XXXXXXXXX......OOO;;;OOOOOOOOOXXXXXX;;;OOOooo                                          ",
"                  ooo............XXXXXXXXX......OOO;;;OOOOOOOOOXXXXXX;;;OOOooo                                          ",
"                  ooo............XXXXXXXXX......OOO;;;OOOOOOOOOXXXXXX;;;OOOooo                                          ",
"                  ooo......XXXXXXoooooo............OOOOOOOOOOOOOOOjjjjjjOOOooo                                          ",
"                  ooo......XXXXXXoooooo............OOOOOOOOOOOOOOOjjjjjjOOOooo                                          ",
"                  ooo......XXXXXXoooooo............OOOOOOOOOOOOOOOjjjjjjOOOooo                                          ",
"                  oooXXXjjjjjjjjjXXX............***&&&$$$&&&***jjjjjjOOOooo                                             ",
"                  oooXXXjjjjjjjjjXXX............***&&&$$$&&&***jjjjjjOOOooo                                             ",
"                  oooXXXjjjjjjjjjXXX............***&&&$$$&&&***jjjjjjOOOooo                                             ",
"                  ooojjj   jjjXXXXXX.........***$$$jjj$$$$$$$$$&&&******                                                ",
"                  ooojjj   jjjXXXXXX.........***$$$jjj$$$$$$$$$&&&******                                                ",
"                  ooojjj   jjjXXXXXX.........***$$$jjj$$$$$$$$$&&&******                                                ",
"                  jjj      jjjXXXXXXXXXXXXXXX***&&&*********$$$$$$&&&jjj                                                ",
"                  jjj      jjjXXXXXXXXXXXXXXX***&&&*********$$$$$$&&&jjj                                                ",
"                  jjj      jjjXXXXXXXXXXXXXXX***&&&*********$$$$$$&&&jjj                                                ",
"                        jjjXXXXXXXXXXXXoooooojjj***&&&&&&&&&&&&***jjj                        777qqqqqqqqq               ",
"                        jjjXXXXXXXXXXXXoooooojjj***&&&&&&&&&&&&***jjj                        777qqqqqqqqq               ",
"                        jjjXXXXXXXXXXXXoooooojjj***&&&&&&&&&&&&***jjj                        777qqqqqqqqq               ",
"                        jjjXXXXXXXXXooojjjjjjjjjjjj******jjjjjj                              777777wwwwwwwww            ",
"                        jjjXXXXXXXXXooojjjjjjjjjjjj******jjjjjj                              777777wwwwwwwww            ",
"                        jjjXXXXXXXXXooojjjjjjjjjjjj******jjjjjj                              777777wwwwwwwww            ",
"                        jjjXXXoooooo      jjj&&&***jjjXXX***&&&jjj                           777777777wwwOOOOOO         ",
"                        jjjXXXoooooo      jjj&&&***jjjXXX***&&&jjj                           777777777wwwOOOOOO         ",
"                        jjjXXXoooooo      jjj&&&***jjjXXX***&&&jjj                           777777777wwwOOOOOO         ",
"                        jjjooo      jjj***&&&$$$jjjXXX...&&&$$$&&&******                  @@@777777qqqqqqwwwOOOeee      ",
"                        jjjooo      jjj***&&&$$$jjjXXX...&&&$$$&&&******                  @@@777777qqqqqqwwwOOOeee      ",
"                        jjjooo      jjj***&&&$$$jjjXXX...&&&$$$&&&******                  @@@777777qqqqqqwwwOOOeee      ",
"                        jjj         ***$$$$$$jjjjjjXXX...$$$$$$$$$jjj&&&******         @@@OOO777eeeqqqqqq777wwweee      ",
"                        jjj         ***$$$$$$jjjjjjXXX...$$$$$$$$$jjj&&&******         @@@OOO777eeeqqqqqq777wwweee      ",
"                        jjj         ***$$$$$$jjjjjjXXX...$$$$$$$$$jjj&&&******         @@@OOO777eeeqqqqqq777wwweee      ",
"                                 jjj$$$&&&***jjjjjjXXX...&&&$$$&&&jjjjjj$$$$$$***jjjjjjOOOOOO777qqqeee999999999eee      ",
"                                 jjj$$$&&&***jjjjjjXXX...&&&$$$&&&jjjjjj$$$$$$***jjjjjjOOOOOO777qqqeee999999999eee      ",
"                                 jjj$$$&&&***jjjjjjXXX...&&&$$$&&&jjjjjj$$$$$$***jjjjjjOOOOOO777qqqeee999999999eee      ",
"                              jjj&&&$$$&&&jjjOOO+++jjj......&&&***      jjjjjj@@@OOO@@@+++@@@999999999999999999999      ",
"                              jjj&&&$$$&&&jjjOOO+++jjj......&&&***      jjjjjj@@@OOO@@@+++@@@999999999999999999999      ",
"                              jjj&&&$$$&&&jjjOOO+++jjj......&&&***      jjjjjj@@@OOO@@@+++@@@999999999999999999999      ",
"                                 jjj&&&OOO@@@OOOOOOjjj...XXXooojjj            jjjOOO@@@OOOOOO@@@@@@jjjOOOOOOjjj         ",
"                                 jjj&&&OOO@@@OOOOOOjjj...XXXooojjj            jjjOOO@@@OOOOOO@@@@@@jjjOOOOOOjjj         ",
"                                 jjj&&&OOO@@@OOOOOOjjj...XXXooojjj            jjjOOO@@@OOOOOO@@@@@@jjjOOOOOOjjj         ",
"                                    jjj@@@OOOOOOOOOjjj...jjjXXXjjj               jjjjjj+++OOOOOOOOOOOO@@@jjj            ",
"                                    jjj@@@OOOOOOOOOjjj...jjjXXXjjj               jjjjjj+++OOOOOOOOOOOO@@@jjj            ",
"                                    jjj@@@OOOOOOOOOjjj...jjjXXXjjj               jjjjjj+++OOOOOOOOOOOO@@@jjj            ",
"                                    jjj+++OOOOOO@@@jjj...jjjXXXjjj                     jjjjjjjjj@@@+++OOOjjj            ",
"                                    jjj+++OOOOOO@@@jjj...jjjXXXjjj                     jjjjjjjjj@@@+++OOOjjj            ",
"                                    jjj+++OOOOOO@@@jjj...jjjXXXjjj                     jjjjjjjjj@@@+++OOOjjj            ",
"                                       jjj@@@OOOjjj...jjj   jjjXXX                                 jjjjjj               ",
"                                       jjj@@@OOOjjj...jjj   jjjXXX                                 jjjjjj               ",
"                                       jjj@@@OOOjjj...jjj   jjjXXX                                 jjjjjj               ",
"                                          jjjjjjjjj...jjj   jjjXXXjjj                                                   ",
"                                          jjjjjjjjj...jjj   jjjXXXjjj                                                   ",
"                                          jjjjjjjjj...jjj   jjjXXXjjj                                                   ",
"                                             jjjooo...jjj   jjjXXXjjj                                                   ",
"                                             jjjooo...jjj   jjjXXXjjj                                                   ",
"                                             jjjooo...jjj   jjjXXXjjj                                                   ",
"                                          jjjjjjoooXXXjjjjjjjjjjjjjjjjjjjjj                                             ",
"                                          jjjjjjoooXXXjjjjjjjjjjjjjjjjjjjjj                                             ",
"                                          jjjjjjoooXXXjjjjjjjjjjjjjjjjjjjjj                                             ",
"                                          jjjOOOOOOOOOOOOjjj++++++++++++jjj                                             ",
"                                          jjjOOOOOOOOOOOOjjj++++++++++++jjj                                             ",
"                                          jjjOOOOOOOOOOOOjjj++++++++++++jjj                                             ",
"                                          jjj+++OOOOOO+++jjj@@@++++++@@@jjj                                             ",
"                                          jjj+++OOOOOO+++jjj@@@++++++@@@jjj                                             ",
"                                          jjj+++OOOOOO+++jjj@@@++++++@@@jjj                                             ",
"                                       jjjjjj###@@@@@@jjj   jjj+++@@@jjjjjjjjj                                          ",
"                                       jjjjjj###@@@@@@jjj   jjj+++@@@jjjjjjjjj                                          ",
"                                       jjjjjj###@@@@@@jjj   jjj+++@@@jjjjjjjjj                                          ",
"                                       jjjOOOOOOOOO###jjjjjjjjj###++++++######jjjjjjjjj                                 ",
"                                       jjjOOOOOOOOO###jjjjjjjjj###++++++######jjjjjjjjj                                 ",
"                                       jjjOOOOOOOOO###jjjjjjjjj###++++++######jjjjjjjjj                                 ",
"                                    jjj+++%%%%%%%%%+++jjjjjj######++++++%%%%%%%%%%%%###jjj                              ",
"                                    jjj+++%%%%%%%%%+++jjjjjj######++++++%%%%%%%%%%%%###jjj                              ",
"                                    jjj+++%%%%%%%%%+++jjjjjj######++++++%%%%%%%%%%%%###jjj                              ",
"                                    jjj%%%%%%%%%%%%###jjjjjj+++++++++++++++++++++++++++@@@                              ",
"                                    jjj%%%%%%%%%%%%###jjjjjj+++++++++++++++++++++++++++@@@                              ",
"                                    jjj%%%%%%%%%%%%###jjjjjj+++++++++++++++++++++++++++@@@                              ",
"                                    jjj+++OOOOOOOOO+++jjjjjjjjjjjjjjjjjjjjjjjjjjjjjjjjjjjj                              ",
"                                    jjj+++OOOOOOOOO+++jjjjjjjjjjjjjjjjjjjjjjjjjjjjjjjjjjjj                              ",
"                                    jjj+++OOOOOOOOO+++jjjjjjjjjjjjjjjjjjjjjjjjjjjjjjjjjjjj                              ",
"                                    jjjjjjjjjjjjjjjjjjjjj                                                               ",
"                                    jjjjjjjjjjjjjjjjjjjjj                                                               ",
"                                    jjjjjjjjjjjjjjjjjjjjj                                                               ",
"                                                                                                                        ",
"                                                                                                                        ",
"                                                                                                                        "
};
