/* XPM */
static char *_22a55c3c3134145b0322ede5356d26eHIHKPxovejLxmGqj[] = {
/* columns rows colors chars-per-pixel */
"120 120 6 1 ",
"  c None",
". c #505050",
"X c gray44",
"o c #909090",
"O c #C0C0C0",
"+ c #F8F8F8",
/* pixels */
"                                                                                                                        ",
"                                                                                                                        ",
"                                                                                                                        ",
"                                                                                                                        ",
"                                                                                                                        ",
"                                                                                                                        ",
"                                                                                                                        ",
"                                                                                                                        ",
"                                                                                                                        ",
"                                                                                                                        ",
"                                                                                                                        ",
"                                                                                                                        ",
"                                                                                                                        ",
"                                                                                                                        ",
"                                                                                                                        ",
"                                                                                                                        ",
"                                                                                                                        ",
"                                                                                                                        ",
"                                                                                                                        ",
"                                                                                                                        ",
"                                                                                                                        ",
"                                                                                                                        ",
"                                                                                                                        ",
"                                                                                                                        ",
"                                                                                                                        ",
"                                                                                                                        ",
"                                                                                                                        ",
"                                                                                                                        ",
"                                                                                                                        ",
"                                                                                                                        ",
"                                                                                                                        ",
"                 XXXX                 XXX                 XXXX                 XXX                 XXXX                 ",
"                 XXXX                 XXX                 XXXX                 XXX                 XXXX                 ",
"                 XXXX                 XXX                 XXXX                 XXX                 XXXX                 ",
"                 oooo                 XXX                 oooo                 XXX                 oooo                 ",
"                 oooo                 XXX                 oooo                 XXX                 oooo                 ",
"                 oooo                 XXX                 oooo                 XXX                 oooo                 ",
"                 oooo                 XXX                 oooo                 XXX                 oooo                 ",
"                 oooo                 ooo                 oooo                 ooo                 oooo                 ",
"                 oooo                 ooo                 oooo                 ooo                 oooo                 ",
"                 oooo                 ooo                 oooo                 ooo                 oooo                 ",
"                 OOOO                 ooo                 OOOO                 ooo                 OOOO                 ",
"                 OOOO                 ooo                 OOOO                 ooo                 OOOO                 ",
"                 OOOO                 ooo                 OOOO                 ooo                 OOOO                 ",
"                 OOOO                 ooo                 OOOO                 ooo                 OOOO                 ",
"                 OOOO                 OOO                 OOOO                 OOO                 OOOO                 ",
"                 OOOO                 OOO                 OOOO                 OOO                 OOOO                 ",
"                 OOOO                 OOO                 OOOO                 OOO                 OOOO                 ",
"                 ++++                 OOO                 ++++                 OOO                 ++++                 ",
"                 ++++                 OOO                 ++++                 OOO                 ++++                 ",
"                 ++++                 OOO                 ++++                 OOO                 ++++                 ",
"              XXX++++XXX          XXXXOOOXXXX          XXX++++XXX          XXXXOOOXXXX          XXX++++XXX              ",
"              XXX++++XXX          XXXXOOOXXXX          XXX++++XXX          XXXXOOOXXXX          XXX++++XXX              ",
"              XXX++++XXX          XXXXOOOXXXX          XXX++++XXX          XXXXOOOXXXX          XXX++++XXX              ",
"              XXX++++XXX          XXXXOOOXXXX          XXX++++XXX          XXXXOOOXXXX          XXX++++XXX              ",
"              XXX++++XXX          XXXXOOOXXXX          XXX++++XXX          XXXXOOOXXXX          XXX++++XXX              ",
"              XXX++++XXX          XXXXOOOXXXX          XXX++++XXX          XXXXOOOXXXX          XXX++++XXX              ",
"              XXX++++XXX          XXXXOOOXXXX          XXX++++XXX          XXXXOOOXXXX          XXX++++XXX              ",
"              XXX++++XXX          XXXXOOOXXXX          XXX++++XXX          XXXXOOOXXXX          XXX++++XXX              ",
"              XXX++++XXX          XXXXOOOXXXX          XXX++++XXX          XXXXOOOXXXX          XXX++++XXX              ",
"              XXX++++XXX          XXXXOOOXXXX          XXX++++XXX          XXXXOOOXXXX          XXX++++XXX              ",
"              XXX++++XXX          XXXXOOOXXXX          XXX++++XXX          XXXXOOOXXXX          XXX++++XXX              ",
"              ooo++++ooo          XXXXOOOXXXX          ooo++++ooo          XXXXOOOXXXX          ooo++++ooo              ",
"              ooo++++ooo          XXXXOOOXXXX          ooo++++ooo          XXXXOOOXXXX          ooo++++ooo              ",
"              ooo++++ooo          XXXXOOOXXXX          ooo++++ooo          XXXXOOOXXXX          ooo++++ooo              ",
"              ooo++++ooo          XXXXOOOXXXX          ooo++++ooo          XXXXOOOXXXX          ooo++++ooo              ",
"              ooo++++ooo          XXXXOOOXXXX          ooo++++ooo          XXXXOOOXXXX          ooo++++ooo              ",
"              ooo++++ooo          XXXXOOOXXXX          ooo++++ooo          XXXXOOOXXXX          ooo++++ooo              ",
"              ooo++++ooo          XXXXOOOXXXX          ooo++++ooo          XXXXOOOXXXX          ooo++++ooo              ",
"              ooo++++ooo          XXXXOOOXXXX          ooo++++ooo          XXXXOOOXXXX          ooo++++ooo              ",
"              ooo++++ooo          XXXXOOOXXXX          ooo++++ooo          XXXXOOOXXXX          ooo++++ooo              ",
"              ooo++++ooo          XXXXOOOXXXX          ooo++++ooo          XXXXOOOXXXX          ooo++++ooo              ",
"              ooo++++ooo          XXXXOOOXXXX          ooo++++ooo          XXXXOOOXXXX          ooo++++ooo              ",
"              ooo++++ooo          XXXXOOOXXXX          ooo++++ooo          XXXXOOOXXXX          ooo++++ooo              ",
"              ooo++++ooo          XXXXOOOXXXX          ooo++++ooo          XXXXOOOXXXX          ooo++++ooo              ",
"              OOO++++OOO          ooooOOOoooo          OOO++++OOO          ooooOOOoooo          OOO++++OOO              ",
"              OOO++++OOO          ooooOOOoooo          OOO++++OOO          ooooOOOoooo          OOO++++OOO              ",
"              OOO++++OOO          ooooOOOoooo          OOO++++OOO          ooooOOOoooo          OOO++++OOO              ",
"              OOO++++OOO          ooooOOOoooo          OOO++++OOO          ooooOOOoooo          OOO++++OOO              ",
"              OOO++++OOO          ooooOOOoooo          OOO++++OOO          ooooOOOoooo          OOO++++OOO              ",
"              OOO++++OOO          ooooOOOoooo          OOO++++OOO          ooooOOOoooo          OOO++++OOO              ",
"              OOO++++OOO          ooooOOOoooo          OOO++++OOO          ooooOOOoooo          OOO++++OOO              ",
"          XXXXOOO++++OOOXXX    ...ooooOOOoooo...   XXXXOOO++++OOOXXXX   ...ooooOOOoooo...    XXXOOO++++OOOXXXX          ",
"          XXXXOOO++++OOOXXX    ...ooooOOOoooo...   XXXXOOO++++OOOXXXX   ...ooooOOOoooo...    XXXOOO++++OOOXXXX          ",
"          XXXXOOO++++OOOXXX    ...ooooOOOoooo...   XXXXOOO++++OOOXXXX   ...ooooOOOoooo...    XXXOOO++++OOOXXXX          ",
"          XXXXOOO++++OOOXXX    ...ooooOOOoooo...   XXXXOOO++++OOOXXXX   ...ooooOOOoooo...    XXXOOO++++OOOXXXX          ",
"          XXXXOOO++++OOOXXX    ...ooooOOOoooo...   XXXXOOO++++OOOXXXX   ...ooooOOOoooo...    XXXOOO++++OOOXXXX          ",
"          XXXXOOO++++OOOXXX    ...ooooOOOoooo...   XXXXOOO++++OOOXXXX   ...ooooOOOoooo...    XXXOOO++++OOOXXXX          ",
"          XXXXOOO++++OOOXXX    ...ooooOOOoooo...   XXXXOOO++++OOOXXXX   ...ooooOOOoooo...    XXXOOO++++OOOXXXX          ",
"          XXXXOOO++++OOOXXX    ...ooooOOOoooo...   XXXXOOO++++OOOXXXX   ...ooooOOOoooo...    XXXOOO++++OOOXXXX          ",
"          XXXXOOO++++OOOXXX    ...ooooOOOoooo...   XXXXOOO++++OOOXXXX   ...ooooOOOoooo...    XXXOOO++++OOOXXXX          ",
"          XXXXOOO++++OOOXXX    ...ooooOOOoooo...   XXXXOOO++++OOOXXXX   ...ooooOOOoooo...    XXXOOO++++OOOXXXX          ",
"          XXXXOOO++++OOOXXX    ...ooooOOOoooo...   XXXXOOO++++OOOXXXX   ...ooooOOOoooo...    XXXOOO++++OOOXXXX          ",
"          XXXXOOO++++OOOXXX    ...ooooOOOoooo...   XXXXOOO++++OOOXXXX   ...ooooOOOoooo...    XXXOOO++++OOOXXXX          ",
"          XXXXOOO++++OOOXXX    ...ooooOOOoooo...   XXXXOOO++++OOOXXXX   ...ooooOOOoooo...    XXXOOO++++OOOXXXX          ",
"          XXXXOOO++++OOOXXX    ...ooooOOOoooo...   XXXXOOO++++OOOXXXX   ...ooooOOOoooo...    XXXOOO++++OOOXXXX          ",
"          ooooOOO++++OOOooo    ...ooooOOOoooo...   ooooOOO++++OOOoooo   ...ooooOOOoooo...    oooOOO++++OOOoooo          ",
"          ooooOOO++++OOOooo    ...ooooOOOoooo...   ooooOOO++++OOOoooo   ...ooooOOOoooo...    oooOOO++++OOOoooo          ",
"          ooooOOO++++OOOooo    ...ooooOOOoooo...   ooooOOO++++OOOoooo   ...ooooOOOoooo...    oooOOO++++OOOoooo          ",
"          ooooOOO++++OOOooo    XXXooooOOOooooXXX   ooooOOO++++OOOoooo   XXXooooOOOooooXXX    oooOOO++++OOOoooo          ",
"          ooooOOO++++OOOooo    XXXooooOOOooooXXX   ooooOOO++++OOOoooo   XXXooooOOOooooXXX    oooOOO++++OOOoooo          ",
"          ooooOOO++++OOOooo    XXXooooOOOooooXXX   ooooOOO++++OOOoooo   XXXooooOOOooooXXX    oooOOO++++OOOoooo          ",
"          ooooOOO++++OOOooo    XXXooooOOOooooXXX   ooooOOO++++OOOoooo   XXXooooOOOooooXXX    oooOOO++++OOOoooo          ",
"          ooooOOO++++OOOooo    XXXooooOOOooooXXX   ooooOOO++++OOOoooo   XXXooooOOOooooXXX    oooOOO++++OOOoooo          ",
"          ooooOOO++++OOOooo    XXXooooOOOooooXXX   ooooOOO++++OOOoooo   XXXooooOOOooooXXX    oooOOO++++OOOoooo          ",
"          ooooOOO++++OOOooo    XXXooooOOOooooXXX   ooooOOO++++OOOoooo   XXXooooOOOooooXXX    oooOOO++++OOOoooo          ",
"          ooooOOO++++OOOooo    XXXooooOOOooooXXX   ooooOOO++++OOOoooo   XXXooooOOOooooXXX    oooOOO++++OOOoooo          ",
"          ooooOOO++++OOOooo    XXXooooOOOooooXXX   ooooOOO++++OOOoooo   XXXooooOOOooooXXX    oooOOO++++OOOoooo          ",
"          ooooOOO++++OOOooo    XXXooooOOOooooXXX   ooooOOO++++OOOoooo   XXXooooOOOooooXXX    oooOOO++++OOOoooo          ",
"          ooooOOO++++OOOooo    XXXooooOOOooooXXX   ooooOOO++++OOOoooo   XXXooooOOOooooXXX    oooOOO++++OOOoooo          ",
"       XXXooooOOO++++OOOooo....XXXooooOOOooooXXX...ooooOOO++++OOOoooo...XXXooooOOOooooXXX....oooOOO++++OOOoooo...       ",
"       XXXooooOOO++++OOOooo....XXXooooOOOooooXXX...ooooOOO++++OOOoooo...XXXooooOOOooooXXX....oooOOO++++OOOoooo...       ",
"       XXXooooOOO++++OOOooo....XXXooooOOOooooXXX...ooooOOO++++OOOoooo...XXXooooOOOooooXXX....oooOOO++++OOOoooo...       ",
"       XXXooooOOO++++OOOooo....XXXooooOOOooooXXX...ooooOOO++++OOOoooo...XXXooooOOOooooXXX....oooOOO++++OOOoooo...       ",
"       XXXooooOOO++++OOOooo....XXXooooOOOooooXXX...ooooOOO++++OOOoooo...XXXooooOOOooooXXX....oooOOO++++OOOoooo...       ",
"       XXXooooOOO++++OOOooo....XXXooooOOOooooXXX...ooooOOO++++OOOoooo...XXXooooOOOooooXXX....oooOOO++++OOOoooo...       ",
"       XXXooooOOO++++OOOooo....XXXooooOOOooooXXX...ooooOOO++++OOOoooo...XXXooooOOOooooXXX....oooOOO++++OOOoooo...       ",
"          ooooOOO++++OOOooo                        ooooOOO++++OOOoooo                        oooOOO++++OOOoooo          ",
"          ooooOOO++++OOOooo                        ooooOOO++++OOOoooo                        oooOOO++++OOOoooo          ",
"          ooooOOO++++OOOooo                        ooooOOO++++OOOoooo                        oooOOO++++OOOoooo          "
};
