/* XPM */
static char *f02d5b5a49f844ca9839a347aab2172cuVrBRDPIIdQob5LD[] = {
/* columns rows colors chars-per-pixel */
"120 120 45 1 ",
"  c None",
". c #0040E8",
"X c #002098",
"o c #000060",
"O c #F8F8F8",
"+ c gray69",
"@ c gray44",
"# c #A80001",
"$ c #F8F898",
"% c #F82020",
"& c #F8A850",
"* c #985010",
"= c #F8D801",
"- c #20A0F8",
"; c #009800",
": c #B8E8F8",
"> c #0098F8",
", c #70D8F8",
"< c #30C8F8",
"1 c #F8D800",
"2 c #0050D0",
"3 c #0088C0",
"4 c #90F8F8",
"5 c #78E0F8",
"6 c #00B8D8",
"7 c #008800",
"8 c #0050F8",
"9 c #006000",
"0 c black",
"q c #00D800",
"w c #78E878",
"e c #00B000",
"r c #00D8E8",
"t c #18E8F8",
"y c #0068F8",
"u c #50F8F8",
"i c #00F0F8",
"p c #98F8F8",
"a c #0090F8",
"s c #D8F8F8",
"d c #70F8F8",
"f c #0080F8",
"g c #0078D8",
"h c #00B8F8",
"j c #101010",
/* pixels */
"                                                                                                                        ",
"                                                                                                                        ",
"                                                                                                                        ",
"                                                   oooXXX                                                               ",
"                                                   oooXXX                                                               ",
"                                                   oooXXX                                                               ",
"                                                   ooo...XXX                                                            ",
"                                                   ooo...XXX                                                            ",
"                                                   ooo...XXX                                                            ",
"                                          oooooooooooo&&&...oooooo                                                      ",
"                                          oooooooooooo&&&...oooooo                                                      ",
"                                          oooooooooooo&&&...oooooo                                                      ",
"                                    oooXXXXXXXXXXXXooo$$$$$$......XXXooo                                                ",
"                                    oooXXXXXXXXXXXXooo$$$$$$......XXXooo                                                ",
"                                    oooXXXXXXXXXXXXooo$$$$$$......XXXooo                                                ",
"                              oooXXX............XXXXXX$$$............XXXooo                                             ",
"                              oooXXX............XXXXXX$$$............XXXooo                                             ",
"                              oooXXX............XXXXXX$$$............XXXooo                                             ",
"                           ooo.....................XXX......XXXXXX......XXXooo                                          ",
"                           ooo.....................XXX......XXXXXX......XXXooo                                          ",
"                           ooo.....................XXX......XXXXXX......XXXooo                                          ",
"                        jjjjjjjjjjjjjjjooooooXXX.........XXXOOOOOOXXX...XXX...XXXXXXXXXXXXXXX                           ",
"                        jjjjjjjjjjjjjjjooooooXXX.........XXXOOOOOOXXX...XXX...XXXXXXXXXXXXXXX                           ",
"                        jjjjjjjjjjjjjjjooooooXXX.........XXXOOOOOOXXX...XXX...XXXXXXXXXXXXXXX                           ",
"                                    oooXXX...............OOOOOOOOOOOO............XXX......ooo                           ",
"                                    oooXXX...............OOOOOOOOOOOO............XXX......ooo                           ",
"                                    oooXXX...............OOOOOOOOOOOO............XXX......ooo                           ",
"                                 ooo.....................OOOOOOOOOOOOXXX.........ooo...ooo                              ",
"                                 ooo.....................OOOOOOOOOOOOXXX.........ooo...ooo                              ",
"                                 ooo.....................OOOOOOOOOOOOXXX.........ooo...ooo                              ",
"                              oooXXX.....................OOO;;;OOOOOOXXX......XXXoooooo                                 ",
"                              oooXXX.....................OOO;;;OOOOOOXXX......XXXoooooo                                 ",
"                              oooXXX.....................OOO;;;OOOOOOXXX......XXXoooooo                                 ",
"                              XXX............XXXXXX......OOOjjjOOOOOOXXX......OOOooo                                    ",
"                              XXX............XXXXXX......OOOjjjOOOOOOXXX......OOOooo                                    ",
"                              XXX............XXXXXX......OOOjjjOOOOOOXXX......OOOooo                                    ",
"                           ooo.........XXXoooXXX............;;;OOOOOOOOO...XXXOOOooo                                    ",
"                           ooo.........XXXoooXXX............;;;OOOOOOOOO...XXXOOOooo                                    ",
"                           ooo.........XXXoooXXX............;;;OOOOOOOOO...XXXOOOooo                                    ",
"                           ooo......jjjjjjoooXXX...&&&$$$&&&&&&OOOOOOOOOXXXOOOooo                                       ",
"                           ooo......jjjjjjoooXXX...&&&$$$&&&&&&OOOOOOOOOXXXOOOooo                                       ",
"                           ooo......jjjjjjoooXXX...&&&$$$&&&&&&OOOOOOOOOXXXOOOooo                                       ",
"                           ooo...jjjOOOOOOjjjXXXXXX&&&jjj$$$$$$&&&&&&OOOOOO...ooo                                       ",
"                           ooo...jjjOOOOOOjjjXXXXXX&&&jjj$$$$$$&&&&&&OOOOOO...ooo                                       ",
"                           ooo...jjjOOOOOOjjjXXXXXX&&&jjj$$$$$$&&&&&&OOOOOO...ooo                                       ",
"                           oooXXXjjjOOOOOO+++jjjXXX***&&&******$$$$$$&&&***jjjjjjjjj                                    ",
"                           oooXXXjjjOOOOOO+++jjjXXX***&&&******$$$$$$&&&***jjjjjjjjj                                    ",
"                           oooXXXjjjOOOOOO+++jjjXXX***&&&******$$$$$$&&&***jjjjjjjjj                                    ",
"                           ooojjj   jjjOOOOOOjjjXXXooo***&&&$$$$$$&&&***jjj                                             ",
"                           ooojjj   jjjOOOOOOjjjXXXooo***&&&$$$$$$&&&***jjj                                             ",
"                           ooojjj   jjjOOOOOOjjjXXXooo***&&&$$$$$$&&&***jjj                                             ",
"                           jjj      jjj+++OOO@@@jjjjjjjjjjjjjjjjjjjjjooojjjjjj                                          ",
"                           jjj      jjj+++OOO@@@jjjjjjjjjjjjjjjjjjjjjooojjjjjj                                          ",
"                           jjj      jjj+++OOO@@@jjjjjjjjjjjjjjjjjjjjjooojjjjjj                                          ",
"                           jjj   jjj@@@@@@@@@+++jjjjjj&&&$$$XXX&&&$$$&&&ooo***jjjjjj                                    ",
"                           jjj   jjj@@@@@@@@@+++jjjjjj&&&$$$XXX&&&$$$&&&ooo***jjjjjj                                    ",
"                           jjj   jjj@@@@@@@@@+++jjjjjj&&&$$$XXX&&&$$$&&&ooo***jjjjjj                                    ",
"                              jjjOOOOOOOOOOOOjjj+++***$$$***XXX&&&$$$$$$***ooo&&&***jjj                                 ",
"                              jjjOOOOOOOOOOOOjjj+++***$$$***XXX&&&$$$$$$***ooo&&&***jjj                                 ",
"                              jjjOOOOOOOOOOOOjjj+++***$$$***XXX&&&$$$$$$***ooo&&&***jjj                                 ",
"                              jjjOOOOOO++++++jjj+++jjj***XXXXXX...$$$$$$&&&jjj***&&&***                                 ",
"                              jjjOOOOOO++++++jjj+++jjj***XXXXXX...$$$$$$&&&jjj***&&&***                                 ",
"                              jjjOOOOOO++++++jjj+++jjj***XXXXXX...$$$$$$&&&jjj***&&&***                                 ",
"                              jjj+++OOOOOOOOO@@@+++jjjXXXooojjjXXX...$$$&&&jjj+++jjj                                    ",
"                              jjj+++OOOOOOOOO@@@+++jjjXXXooojjjXXX...$$$&&&jjj+++jjj                                    ",
"                              jjj+++OOOOOOOOO@@@+++jjjXXXooojjjXXX...$$$&&&jjj+++jjj                                    ",
"                                 jjjOOOOOOOOO+++@@@jjjjjj      ooo......XXX@@@jjj                                       ",
"                                 jjjOOOOOOOOO+++@@@jjjjjj      ooo......XXX@@@jjj                                       ",
"                                 jjjOOOOOOOOO+++@@@jjjjjj      ooo......XXX@@@jjj                                       ",
"                                 jjj@@@++++++@@@jjjjjj      ooojjj...XXXooo+++@@@                                       ",
"                                 jjj@@@++++++@@@jjjjjj      ooojjj...XXXooo+++@@@                                       ",
"                                 jjj@@@++++++@@@jjjjjj      ooojjj...XXXooo+++@@@                                       ",
"                                    jjjOOOOOO+++jjj   oooooojjjXXX...jjjjjj++++++jjj                                    ",
"                                    jjjOOOOOO+++jjj   oooooojjjXXX...jjjjjj++++++jjj                                    ",
"                                    jjjOOOOOO+++jjj   oooooojjjXXX...jjjjjj++++++jjj                                    ",
"                                       jjjjjjjjj            ooo...jjjooojjj++++++jjj                                    ",
"                                       jjjjjjjjj            ooo...jjjooojjj++++++jjj                                    ",
"                                       jjjjjjjjj            ooo...jjjooojjj++++++jjj                                    ",
"                                                         oooXXX...jjjooojjjjjjjjj                                       ",
"                                                         oooXXX...jjjooojjjjjjjjj                                       ",
"                                                         oooXXX...jjjooojjjjjjjjj                                       ",
"                                                         ooo...XXXjjjooo                                                ",
"                                                         ooo...XXXjjjooo                                                ",
"                                                         ooo...XXXjjjooo                                                ",
"                                                      jjjooo...jjjoooooo                                                ",
"                                                      jjjooo...jjjoooooo                                                ",
"                                                      jjjooo...jjjoooooo                                                ",
"                                                   jjjOOOooo...jjjjjjjjjjjjjjj                                          ",
"                                                   jjjOOOooo...jjjjjjjjjjjjjjj                                          ",
"                                                   jjjOOOooo...jjjjjjjjjjjjjjj                                          ",
"                                                   jjjOOOOOO++++++jjj++++++jjj                                          ",
"                                                   jjjOOOOOO++++++jjj++++++jjj                                          ",
"                                                   jjjOOOOOO++++++jjj++++++jjj                                          ",
"                                                   jjj+++OOO+++jjj++++++jjj                                             ",
"                                                   jjj+++OOO+++jjj++++++jjj                                             ",
"                                                   jjj+++OOO+++jjj++++++jjj                                             ",
"                                                jjj%%%%%%@@@jjj######@@@+++######                                       ",
"                                                jjj%%%%%%@@@jjj######@@@+++######                                       ",
"                                                jjj%%%%%%@@@jjj######@@@+++######                                       ",
"                                             jjjOOOOOOOOO%%%jjj###++++++%%%%%%%%%%%%###                                 ",
"                                             jjjOOOOOOOOO%%%jjj###++++++%%%%%%%%%%%%###                                 ",
"                                             jjjOOOOOOOOO%%%jjj###++++++%%%%%%%%%%%%###                                 ",
"                                          jjj###%%%%%%%%%+++jjj###++++++%%%%%%%%%%%%%%%###                              ",
"                                          jjj###%%%%%%%%%+++jjj###++++++%%%%%%%%%%%%%%%###                              ",
"                                          jjj###%%%%%%%%%+++jjj###++++++%%%%%%%%%%%%%%%###                              ",
"                                          jjj%%%%%%%%%%%%###jjj@@@@@@@@@+++++++++++++++@@@                              ",
"                                          jjj%%%%%%%%%%%%###jjj@@@@@@@@@+++++++++++++++@@@                              ",
"                                          jjj%%%%%%%%%%%%###jjj@@@@@@@@@+++++++++++++++@@@                              ",
"                                          jjj+++OOOOOOOOO+++jjjjjjjjjjjjjjjjjjjjjjjjjjjjjj                              ",
"                                          jjj+++OOOOOOOOO+++jjjjjjjjjjjjjjjjjjjjjjjjjjjjjj                              ",
"                                          jjj+++OOOOOOOOO+++jjjjjjjjjjjjjjjjjjjjjjjjjjjjjj                              ",
"                                             jjjjjjjjjjjjjjj                                                            ",
"                                             jjjjjjjjjjjjjjj                                                            ",
"                                             jjjjjjjjjjjjjjj                                                            ",
"                                                                                                                        ",
"                                                                                                                        ",
"                                                                                                                        ",
"                                                                                                                        ",
"                                                                                                                        ",
"                                                                                                                        "
};
